<?xml version="1.0" encoding="UTF-8" standalone="no"?>
<svg
   width="32"
   height="32"
   viewBox="0 0 32 32"
   fill="none"
   version="1.1"
   id="svg4"
   sodipodi:docname="favicon.svg"
   inkscape:version="1.1.2 (0a00cf5339, 2022-02-04)"
   xmlns:inkscape="http://www.inkscape.org/namespaces/inkscape"
   xmlns:sodipodi="http://sodipodi.sourceforge.net/DTD/sodipodi-0.dtd"
   xmlns="http://www.w3.org/2000/svg"
   xmlns:svg="http://www.w3.org/2000/svg">
  <defs
     id="defs8" />
  <sodipodi:namedview
     id="namedview6"
     pagecolor="#ffffff"
     bordercolor="#666666"
     borderopacity="1.0"
     inkscape:pageshadow="2"
     inkscape:pageopacity="0.0"
     inkscape:pagecheckerboard="0"
     showgrid="false"
     inkscape:zoom="18.539456"
     inkscape:cx="12.486882"
     inkscape:cy="17.961692"
     inkscape:window-width="1920"
     inkscape:window-height="1011"
     inkscape:window-x="0"
     inkscape:window-y="32"
     inkscape:window-maximized="1"
     inkscape:current-layer="svg4" />
  <circle
     style="fill:#131a22;fill-opacity:1;stroke:none;stroke-width:0;stroke-linecap:round;stroke-linejoin:round;stroke-miterlimit:4;stroke-dasharray:none;stroke-opacity:0.501961;paint-order:stroke markers fill"
     id="path1143"
     cx="16"
     cy="16"
     r="15.5" />
  <g
     aria-label="p"
     id="text10533"
     style="font-size:29.3333px;line-height:1.25;fill:#ffffff">
    <path
       d="m 16.817658,22.441273 q -0.498666,0 -1.349332,-0.117333 -0.821332,-0.088 -1.701331,-0.381333 -0.850666,-0.293333 -1.495998,-0.850665 l 0.850665,-1.173332 v 7.714657 H 9.455 V 10.238621 q 0,-0.9386658 0.557333,-1.5839984 0.586666,-0.6453326 1.525331,-1.0266655 0.967999,-0.4106662 2.141331,-0.586666 1.202665,-0.2053331 2.493331,-0.2053331 2.111997,0 3.754662,0.7333325 1.642665,0.7333325 2.610664,2.4933305 0.967999,1.759998 0.967999,4.781328 0,2.287997 -0.792,4.018662 -0.791999,1.701331 -2.287997,2.639997 -1.495998,0.938665 -3.607996,0.938665 z m -0.938665,-3.021329 q 1.290665,0 2.14133,-0.498667 0.879999,-0.498666 1.290666,-1.525331 0.439999,-1.055999 0.439999,-2.639997 0,-1.407998 -0.322666,-2.493331 -0.293333,-1.085332 -1.114666,-1.671998 -0.791999,-0.6159989 -2.258664,-0.6159989 -1.437331,0 -2.199997,0.2933329 -0.733333,0.293333 -0.733333,0.821332 v 7.597325 q 0.645333,0.352 1.378666,0.557333 0.733332,0.176 1.378665,0.176 z"
       style="font-weight:600;font-family:'Maven Pro';-inkscape-font-specification:'Maven Pro Semi-Bold'"
       id="path40719" />
  </g>
</svg>
