<?xml version="1.0" encoding="UTF-8" standalone="no"?>
<!-- Created with Inkscape (http://www.inkscape.org/) -->

<svg
   width="120px"
   height="30px"
   viewBox="0 0 120 30"
   version="1.1"
   id="SVGRoot"
   sodipodi:docname="logo-white.svg"
   inkscape:version="1.1.2 (0a00cf5339, 2022-02-04)"
   xmlns:inkscape="http://www.inkscape.org/namespaces/inkscape"
   xmlns:sodipodi="http://sodipodi.sourceforge.net/DTD/sodipodi-0.dtd"
   xmlns="http://www.w3.org/2000/svg"
   xmlns:svg="http://www.w3.org/2000/svg">
  <sodipodi:namedview
     id="namedview137"
     pagecolor="#ffffff"
     bordercolor="#000000"
     borderopacity="0.25"
     inkscape:showpageshadow="2"
     inkscape:pageopacity="0.0"
     inkscape:pagecheckerboard="0"
     inkscape:deskcolor="#d1d1d1"
     inkscape:document-units="px"
     showgrid="false"
     inkscape:zoom="5.6568545"
     inkscape:cx="41.542522"
     inkscape:cy="24.041629"
     inkscape:window-width="1495"
     inkscape:window-height="749"
     inkscape:window-x="563"
     inkscape:window-y="279"
     inkscape:window-maximized="0"
     inkscape:current-layer="text368"
     inkscape:pageshadow="2" />
  <defs
     id="defs132">
    <rect
       x="-1.4777668"
       y="42.333266"
       width="127.8846"
       height="23.821752"
       id="rect3454" />
  </defs>
  <g
     inkscape:label="Layer 1"
     inkscape:groupmode="layer"
     id="layer1">
    <g
       aria-label="AuditOcean"
       id="text368"
       style="font-weight:600;font-size:21.3333px;font-family:'Noto Sans';-inkscape-font-specification:'Noto Sans Semi-Bold';letter-spacing:-0.85px;fill:#000000;stroke-width:0.00000006;stroke-linecap:square"
       transform="translate(0.48891427,1.0266145)">
      <text
         xml:space="preserve"
         style="font-style:normal;font-weight:normal;font-size:40px;line-height:1.25;font-family:sans-serif;fill:#000000;fill-opacity:1;stroke:none"
         x="0.4973959"
         y="73.362579"
         id="text20649"><tspan
           sodipodi:role="line"
           id="tspan20647" /></text>
      <g
         aria-label="ARKA"
         id="text6678"
         style="font-size:40px;line-height:1.25;font-family:Audiowide;-inkscape-font-specification:Audiowide;fill:#ffffff"
         transform="matrix(0.46245182,0,0,0.46245182,-0.3789205,6.4986936)">
        <path
           d="M 2.3932883,28.526455 Q 2.6471945,28.018642 2.920632,27.393642 3.1940695,26.749111 3.4284445,26.006924 L 3.9557883,24.717861 Q 3.6042258,24.190517 3.233132,23.585049 2.8815695,22.960049 2.5886008,22.315517 2.295632,21.670986 2.1003195,21.026455 q -0.1757812,-0.644531 -0.1757812,-1.25 0,-0.03906 0.2929687,-0.05859 0.3125,-0.03906 0.7617188,-0.05859 0.46875,-0.01953 0.9960937,-0.01953 0.546875,-0.01953 0.9960938,-0.01953 0.46875,-0.01953 0.7617187,-0.01953 0.3125,-0.01953 0.3125,-0.01953 0.4492188,-1.171875 0.8789063,-2.226562 0.4296875,-1.054688 0.859375,-2.128906 0.4296875,-1.074219 0.859375,-2.1875 0.4296875,-1.132813 0.859375,-2.421875 0.8203127,-2.4218753 1.6015627,-4.2578128 0.78125,-1.8359375 1.464844,-3.4179688 0.07813,-0.1953125 0.253906,-0.3515625 0.195312,-0.1757812 0.410156,-0.2929687 0.214844,-0.1171875 0.410156,-0.1953125 0.214844,-0.078125 0.332032,-0.1171875 0.07813,-0.019531 0.585937,-0.1757813 0.527344,-0.15625 1.191406,-0.3320312 0.664063,-0.1757813 1.308594,-0.3125 0.664063,-0.1367188 1.054688,-0.1367188 h 0.351562 q 0.3125,0 0.585938,0.15625 0.292968,0.1367188 0.390625,0.5664063 0.9375,2.4023437 1.992187,5.2539062 1.074219,2.8320313 2.089844,6.2499996 0.546875,1.835938 1.074219,3.476563 0.527343,1.640625 1.054687,3.203125 0.527344,1.5625 1.054688,3.125 0.546875,1.5625 1.113281,3.222656 0.175781,0.703125 0.351562,1.113281 0.195313,0.410157 0.351563,0.644532 0.15625,0.234375 0.253906,0.351562 0.09766,0.09766 0.09766,0.214844 0,0.117187 -0.371093,0.234375 l -4.199219,1.367187 q -0.46875,0.175782 -0.957031,0.351563 -0.488282,0.175781 -0.917969,0.3125 -0.429688,0.136719 -0.761719,0.214844 -0.3125,0.09766 -0.449219,0.09766 H 21.10423 q -0.273438,0 -0.390625,-0.175781 -0.117188,-0.15625 -0.15625,-0.3125 -0.195313,-0.644532 -0.390625,-1.152344 -0.195313,-0.527344 -0.390625,-1.035156 -0.175781,-0.527344 -0.371094,-1.113282 -0.175781,-0.585937 -0.351562,-1.386718 -0.03906,-0.09766 -0.214844,-0.15625 -0.175781,-0.07813 -0.429688,-0.117188 -0.234375,-0.03906 -0.507812,-0.03906 -0.273438,-0.01953 -0.507813,-0.01953 -0.742187,0 -1.210937,0.01953 -0.449219,0 -0.800781,0.01953 -0.351563,0 -0.683594,0.01953 -0.3125,0 -0.78125,0 -0.566406,0 -1.171875,0 -0.585938,-0.01953 -1.074219,-0.03906 l -1.113281,-0.03906 q -0.507813,1.40625 -1.0156252,2.636719 -0.5078125,1.230469 -1.09375,2.539062 -0.039063,0.15625 -0.1953125,0.253907 -0.1367188,0.09766 -0.2929688,0.09766 -0.1171875,0 -0.1367187,-0.01953 Q 5.9284445,30.47958 4.639382,29.815517 3.3503195,29.151455 2.3932883,28.526455 Z M 15.557351,10.967861 q -0.46875,1.738281 -0.9375,3.164063 -0.449219,1.40625 -0.839844,2.5 -0.371094,1.09375 -0.644531,1.855468 -0.273438,0.742188 -0.390625,1.152344 v 0.175781 q 0,0.117188 -0.01953,0.15625 h 4.6875 q -0.214844,-0.957031 -0.46875,-1.933593 -0.234375,-0.976563 -0.46875,-2.050782 -0.234375,-1.074218 -0.46875,-2.304687 -0.234375,-1.230469 -0.449219,-2.714844 z"
           style="font-weight:bold;font-family:'Carter One';-inkscape-font-specification:'Carter One Bold';fill:#ffffff"
           id="path24128" />
        <path
           d="m 38.945632,28.389736 q -0.01953,0.175781 -0.07813,0.351563 -0.03906,0.15625 -0.253907,0.253906 -0.07813,0.03906 -0.78125,0.292969 -0.683593,0.234375 -1.601562,0.566406 -0.898438,0.3125 -1.796875,0.625 -0.878906,0.332031 -1.347656,0.507812 -0.234375,0.09766 -0.585938,0.195313 -0.332031,0.117187 -0.664062,0.117187 -0.273438,0 -0.488282,-0.136718 -0.195312,-0.136719 -0.195312,-0.507813 0,-0.859375 0.03906,-1.5625 0.05859,-0.722656 0.136719,-1.503906 0.07813,-0.78125 0.15625,-1.71875 0.09766,-0.957031 0.175781,-2.265625 0.09766,-1.71875 0.214844,-3.300781 0.117188,-1.601563 0.234375,-3.320313 l 0.273438,-3.339844 q 0.05859,-0.820312 0.117187,-1.660156 0.05859,-0.859375 0.117188,-1.757812 l 0.21485,-2.3828128 q 0,-0.039063 -0.117187,-0.039063 -0.15625,0 -0.527344,0.078125 -0.371094,0.058594 -0.878906,0.15625 -0.507813,0.097656 -1.132813,0.2148437 -0.605468,0.097656 -1.25,0.1953125 -0.15625,0 -0.3125,-0.058594 -0.136718,-0.078125 -0.136718,-0.1757813 0,-0.078125 0.03906,-0.1171875 l 3.164063,-5.5273437 q 1.074218,-0.234375 2.304687,-0.46875 1.25,-0.2539063 2.675781,-0.4492188 1.425782,-0.1953125 3.027344,-0.3125 1.601563,-0.1367187 3.398438,-0.1367187 2.03125,0.039063 3.945312,0.4101562 1.933594,0.3515625 3.417969,1.2109375 1.503906,0.8398438 2.402344,2.3046875 0.917968,1.4453125 0.917968,3.671875 0,1.2304684 -0.429687,2.2656244 -0.410156,1.035157 -1.074219,1.875 -0.644531,0.820313 -1.425781,1.464844 -0.78125,0.625 -1.503906,1.074219 -0.703125,0.449219 -1.25,0.722656 -0.546875,0.253906 -0.742188,0.332031 0,0.03906 0.01953,0.09766 0.03906,0.05859 0.136719,0.234375 0.09766,0.15625 0.273438,0.46875 0.195312,0.292968 0.488281,0.820312 0.3125,0.46875 0.742187,1.25 0.429688,0.78125 1.015625,1.855469 0.605469,1.054687 1.386719,2.363281 0.78125,1.308594 1.796875,2.8125 0.332031,0.292969 0.761719,0.371094 0.429687,0.05859 0.800781,0.07813 0.371094,0 0.625,0.03906 0.253906,0.01953 0.253906,0.234375 0,0.15625 -0.332031,0.371094 -0.3125,0.195313 -0.742187,0.410156 -0.429688,0.214844 -0.878907,0.410157 -0.429687,0.195312 -0.664062,0.3125 -0.46875,0.234375 -0.976563,0.449218 -0.507812,0.214844 -1.09375,0.488282 -0.585937,0.253906 -1.308593,0.605468 -0.703125,0.351563 -1.601563,0.839844 -0.234375,0.136719 -0.449219,0.175781 -0.195312,0.05859 -0.371093,0.05859 -0.351563,0 -0.605469,-0.175781 Q 46.367507,30.94833 46.191725,30.713955 46.015944,30.47958 45.898757,30.225674 45.8011,29.991299 45.722975,29.835049 L 39.902663,17.569424 Z M 40.137038,15.16708 q 0.996094,0 2.070312,-0.507813 1.074219,-0.507812 1.953125,-1.308593 0.878907,-0.800782 1.445313,-1.816407 0.566406,-1.015625 0.566406,-2.0507808 0,-2.8320313 -3.398437,-2.8320313 -0.644532,0 -1.074219,0.097656 -0.429688,0.078125 -0.78125,0.1171875 z"
           style="font-weight:bold;font-family:'Carter One';-inkscape-font-specification:'Carter One Bold';fill:#ffffff"
           id="path24130" />
        <path
           d="m 66.904225,2.0030174 q -0.03906,0.2929688 -0.07813,0.9375 -0.03906,0.625 -0.117188,1.4453125 -0.05859,0.8203125 -0.117187,1.7578125 -0.05859,0.9179688 -0.136719,1.796875 -0.05859,0.859375 -0.136719,1.5820313 -0.05859,0.7226563 -0.09766,1.1523433 l 0.996094,-1.0156246 2.773437,-3.4375 q 0.507813,-0.6445312 1.015625,-1.25 0.507813,-0.625 0.898438,-1.1132812 0.410156,-0.5078125 0.664062,-0.8398438 0.253907,-0.3320312 0.292969,-0.3710937 l 8.671875,-0.7226563 q 0.03906,-0.019531 0.175781,-0.019531 h 0.15625 q 0.449219,0 0.449219,0.234375 0,0.1367187 -0.136719,0.3320312 -0.117187,0.1757813 -0.371093,0.46875 -0.3125,0.3710938 -0.917969,1.0742188 -0.585938,0.6835937 -1.289063,1.5234375 -0.703125,0.8203125 -1.464843,1.71875 -0.742188,0.8789062 -1.386719,1.640625 -0.644531,0.7421875 -1.113281,1.2890621 -0.449219,0.546875 -0.566407,0.703125 l -1.230468,1.171875 q -1.25,1.191406 -3.203125,2.96875 0.605468,0.625 1.289062,1.367188 0.703125,0.722656 1.328125,1.40625 0.644531,0.664062 1.152344,1.210937 0.527344,0.546875 0.78125,0.820313 l 6.035156,6.992187 q 0.09766,0.117188 0.253906,0.195313 0.15625,0.07813 0.3125,0.136718 0.15625,0.05859 0.253907,0.136719 0.117187,0.05859 0.117187,0.15625 0,0.117188 -0.253906,0.371094 -0.15625,0.15625 -0.585938,0.46875 -0.429687,0.292969 -1.015625,0.644531 -0.566406,0.351563 -1.230468,0.722656 -0.664063,0.371094 -1.289063,0.664063 -0.605469,0.3125 -1.132812,0.507812 -0.507813,0.195313 -0.78125,0.195313 -0.410157,0 -0.859375,-0.371094 -0.449219,-0.351562 -1.074219,-1.074219 -0.625,-0.742187 -1.484375,-1.875 -0.859375,-1.132812 -2.070313,-2.65625 -0.703125,-0.878906 -1.367187,-1.71875 -0.664063,-0.859375 -1.25,-1.601562 -0.585938,-0.761719 -1.074219,-1.347656 -0.46875,-0.605469 -0.78125,-0.976563 -0.15625,0.15625 -0.332031,0.3125 -0.175781,0.136719 -0.332031,0.292969 l -0.683594,8.378906 q -0.01953,0.175781 -0.07813,0.351563 -0.03906,0.175781 -0.253906,0.253906 l -5.52733,1.992187 q -0.214844,0.07813 -0.566406,0.195313 -0.351563,0.117187 -0.683594,0.117187 -0.292969,0 -0.488281,-0.15625 -0.195313,-0.15625 -0.195313,-0.566406 0.09766,-1.152344 0.234375,-2.988281 0.15625,-1.835938 0.3125,-4.179688 0.175781,-2.363281 0.351563,-5.136718 0.195312,-2.792969 0.410156,-5.859375 l 0.546875,-8.2226566 q 0.01953,-0.3515625 0.03906,-0.5859375 0.01953,-0.234375 0.05859,-0.390625 0.03906,-0.15625 0.136719,-0.234375 0.09766,-0.078125 0.292969,-0.1171875 l 6.757812,-1.6210937 q 0.253906,-0.078125 0.527344,-0.078125 0.273437,0 0.371094,0.1757812 0.09766,0.15625 0.09766,0.6640625 z"
           style="font-weight:bold;font-family:'Carter One';-inkscape-font-specification:'Carter One Bold';fill:#ffffff"
           id="path24132" />
        <path
           d="m 82.030785,28.526455 q 0.253906,-0.507813 0.527344,-1.132813 0.273437,-0.644531 0.507812,-1.386718 l 0.527344,-1.289063 q -0.351562,-0.527344 -0.722656,-1.132812 -0.351563,-0.625 -0.644531,-1.269532 -0.292969,-0.644531 -0.488282,-1.289062 -0.175781,-0.644531 -0.175781,-1.25 0,-0.03906 0.292969,-0.05859 0.3125,-0.03906 0.761719,-0.05859 0.46875,-0.01953 0.996093,-0.01953 0.546875,-0.01953 0.996094,-0.01953 0.46875,-0.01953 0.761719,-0.01953 0.3125,-0.01953 0.3125,-0.01953 0.449219,-1.171875 0.878906,-2.226562 0.429688,-1.054688 0.859375,-2.128906 0.429688,-1.074219 0.859375,-2.1875 0.429688,-1.132813 0.859375,-2.421875 0.820313,-2.4218753 1.601563,-4.2578128 0.78125,-1.8359375 1.464843,-3.4179688 0.07813,-0.1953125 0.253907,-0.3515625 0.195312,-0.1757812 0.410156,-0.2929687 0.214844,-0.1171875 0.410156,-0.1953125 0.214844,-0.078125 0.332031,-0.1171875 0.07813,-0.019531 0.585938,-0.1757813 0.527344,-0.15625 1.191406,-0.3320312 0.664063,-0.1757813 1.308594,-0.3125 0.664062,-0.1367188 1.054687,-0.1367188 h 0.351563 q 0.3125,0 0.585937,0.15625 0.292969,0.1367188 0.390625,0.5664063 0.937504,2.4023437 1.992184,5.2539062 1.07422,2.8320313 2.08985,6.2499996 0.54687,1.835938 1.07422,3.476563 0.52734,1.640625 1.05468,3.203125 0.52735,1.5625 1.05469,3.125 0.54688,1.5625 1.11328,3.222656 0.17578,0.703125 0.35157,1.113281 0.19531,0.410157 0.35156,0.644532 0.15625,0.234375 0.2539,0.351562 0.0977,0.09766 0.0977,0.214844 0,0.117187 -0.37109,0.234375 l -4.19922,1.367187 q -0.46875,0.175782 -0.95703,0.351563 -0.48828,0.175781 -0.91797,0.3125 -0.42969,0.136719 -0.76172,0.214844 -0.3125,0.09766 -0.44922,0.09766 h -0.11719 q -0.27343,0 -0.39062,-0.175781 -0.11719,-0.15625 -0.15625,-0.3125 -0.195315,-0.644532 -0.390627,-1.152344 -0.195313,-0.527344 -0.390625,-1.035156 -0.175782,-0.527344 -0.371094,-1.113282 -0.175781,-0.585937 -0.351563,-1.386718 -0.03906,-0.09766 -0.214843,-0.15625 -0.175782,-0.07813 -0.429688,-0.117188 -0.234375,-0.03906 -0.507812,-0.03906 -0.273438,-0.01953 -0.507813,-0.01953 -0.742187,0 -1.210937,0.01953 -0.449219,0 -0.800782,0.01953 -0.351562,0 -0.683593,0.01953 -0.3125,0 -0.78125,0 -0.566407,0 -1.171875,0 -0.585938,-0.01953 -1.074219,-0.03906 l -1.113281,-0.03906 q -0.507813,1.40625 -1.015625,2.636719 -0.507813,1.230469 -1.09375,2.539062 -0.03906,0.15625 -0.195313,0.253907 -0.136719,0.09766 -0.292969,0.09766 -0.117187,0 -0.136718,-0.01953 -1.894532,-0.683594 -3.183594,-1.347657 -1.289063,-0.664062 -2.246094,-1.289062 z M 95.194848,10.967861 q -0.46875,1.738281 -0.9375,3.164063 -0.449219,1.40625 -0.839844,2.5 -0.371094,1.09375 -0.644531,1.855468 -0.273438,0.742188 -0.390625,1.152344 v 0.175781 q 0,0.117188 -0.01953,0.15625 h 4.6875 q -0.214843,-0.957031 -0.46875,-1.933593 -0.234375,-0.976563 -0.46875,-2.050782 -0.234375,-1.074218 -0.46875,-2.304687 -0.234375,-1.230469 -0.449218,-2.714844 z"
           style="font-weight:bold;font-family:'Carter One';-inkscape-font-specification:'Carter One Bold';fill:#ffffff"
           id="path24134" />
      </g>
    </g>
  </g>
</svg>
