<?xml version="1.0" encoding="UTF-8" standalone="no"?>
<!-- Created with Inkscape (http://www.inkscape.org/) -->

<svg
   width="120px"
   height="30px"
   viewBox="0 0 120 30"
   version="1.1"
   id="SVGRoot"
   sodipodi:docname="logo-white.svg"
   inkscape:version="1.1.2 (0a00cf5339, 2022-02-04)"
   xmlns:inkscape="http://www.inkscape.org/namespaces/inkscape"
   xmlns:sodipodi="http://sodipodi.sourceforge.net/DTD/sodipodi-0.dtd"
   xmlns="http://www.w3.org/2000/svg"
   xmlns:svg="http://www.w3.org/2000/svg">
  <sodipodi:namedview
     id="namedview137"
     pagecolor="#ffffff"
     bordercolor="#000000"
     borderopacity="0.25"
     inkscape:showpageshadow="2"
     inkscape:pageopacity="0.0"
     inkscape:pagecheckerboard="0"
     inkscape:deskcolor="#d1d1d1"
     inkscape:document-units="px"
     showgrid="false"
     inkscape:zoom="16"
     inkscape:cx="5.5625"
     inkscape:cy="13.125"
     inkscape:window-width="1920"
     inkscape:window-height="1043"
     inkscape:window-x="1920"
     inkscape:window-y="0"
     inkscape:window-maximized="1"
     inkscape:current-layer="layer3"
     inkscape:pageshadow="2" />
  <defs
     id="defs132">
    <rect
       x="-1.4777668"
       y="42.333266"
       width="127.8846"
       height="23.821752"
       id="rect3454" />
  </defs>
  <g
     inkscape:label="Layer 1"
     inkscape:groupmode="layer"
     id="layer1"
     style="display:inline">
    <g
       aria-label="pαirfy"
       transform="matrix(0.84706504,0,0,0.85038725,39.488212,2.2921142)"
       id="text2212"
       style="font-size:24px;line-height:1.25;font-family:Manrope;-inkscape-font-specification:Manrope;letter-spacing:-0.25px;fill:#ffffff;stroke:#ffffff;stroke-width:0.29456;stroke-linecap:round;stroke-linejoin:round;stroke-miterlimit:10;stroke-dasharray:none;stroke-opacity:1;paint-order:stroke fill markers">
      <path
         d="m 7.0034693,21.243646 q -1.896,0 -3.18,-0.9 -1.284,-0.9 -1.932,-2.448 -0.648,-1.56 -0.648,-3.492 0,-1.956 0.648,-3.504 0.648,-1.548 1.896,-2.436 1.26,-0.9 3.108,-0.9 1.836,0 3.1799997,0.9 1.356,0.888 2.1,2.436 0.744,1.536 0.744,3.504 0,1.944 -0.732,3.492 -0.732,1.548 -2.064,2.448 -1.3319997,0.9 -3.1199997,0.9 z m -6.252,5.4 v -18.72 h 2.556 v 9.096 h 0.36 v 9.624 z m 5.808,-7.992 q 1.128,0 1.86,-0.564 0.732,-0.564 1.08,-1.524 0.36,-0.972 0.36,-2.16 0,-1.176 -0.36,-2.136 -0.36,-0.972 -1.116,-1.536 -0.756,-0.576 -1.92,-0.576 -1.104,0 -1.8,0.54 -0.696,0.528 -1.032,1.488 -0.324,0.948 -0.324,2.22 0,1.26 0.324,2.22 0.336,0.96 1.044,1.5 0.72,0.528 1.884,0.528 z"
         style="font-weight:bold;-inkscape-font-specification:'Manrope Bold';fill:#ffffff;stroke:#ffffff;stroke-width:0.29456;stroke-linecap:round;stroke-linejoin:round;stroke-miterlimit:10;stroke-dasharray:none;stroke-opacity:1;paint-order:stroke fill markers"
         id="path103268" />
      <path
         d="m 20.565451,21.243646 q -1.836,0 -3.18,-0.9 -1.344,-0.9 -2.076,-2.448 -0.72,-1.548 -0.72,-3.492 0,-1.968 0.744,-3.504 0.744,-1.548 2.1,-2.436 1.356,-0.9 3.216,-0.9 1.452,0 2.532,0.6 1.092,0.6 1.74,1.656 l -0.444,0.612 v -2.508 h 2.556 v 12.96 h -2.556 v -2.532 l 0.444,0.6 q -0.648,1.068 -1.788,1.68 -1.128,0.612 -2.568,0.612 z m 0.444,-2.592 q 1.128,0 1.824,-0.528 0.708,-0.54 1.032,-1.5 0.336,-0.96 0.336,-2.22 0,-1.272 -0.336,-2.22 -0.324,-0.96 -1.02,-1.488 -0.696,-0.54 -1.8,-0.54 -1.08,0 -1.836,0.528 -0.756,0.516 -1.164,1.476 -0.396,0.948 -0.396,2.256 0,1.176 0.348,2.136 0.348,0.96 1.092,1.536 0.744,0.564 1.92,0.564 z"
         style="font-weight:bold;-inkscape-font-specification:'Manrope Bold';fill:#ffffff;stroke:#ffffff;stroke-width:0.29456;stroke-linecap:round;stroke-linejoin:round;stroke-miterlimit:10;stroke-dasharray:none;stroke-opacity:1;paint-order:stroke fill markers"
         id="path103270" />
      <path
         d="m 30.38345,20.883646 v -12.96 h 2.892 v 12.96 z"
         style="font-weight:bold;-inkscape-font-specification:'Manrope Bold';fill:#ffffff;stroke:#ffffff;stroke-width:0.29456;stroke-linecap:round;stroke-linejoin:round;stroke-miterlimit:10;stroke-dasharray:none;stroke-opacity:1;paint-order:stroke fill markers"
         id="path103272"
         sodipodi:nodetypes="ccccc" />
      <path
         d="m 36.625414,20.883646 v -12.96 h 2.556 v 3.156 l -0.312,-0.408 q 0.24,-0.648 0.636,-1.176 0.408,-0.54 0.972,-0.888 0.48,-0.324 1.056,-0.504 0.588,-0.192 1.2,-0.228 0.612,-0.048 1.188,0.048 v 2.7 q -0.576,-0.168 -1.332,-0.108 -0.744,0.06 -1.344,0.42 -0.6,0.324 -0.984,0.828 -0.372,0.504 -0.552,1.152 -0.18,0.636 -0.18,1.38 v 6.588 z"
         style="font-weight:bold;-inkscape-font-specification:'Manrope Bold';fill:#ffffff;stroke:#ffffff;stroke-width:0.29456;stroke-linecap:round;stroke-linejoin:round;stroke-miterlimit:10;stroke-dasharray:none;stroke-opacity:1;paint-order:stroke fill markers"
         id="path103274" />
      <path
         d="m 47.079373,20.883646 v -13.164 q 0,-0.492 0.036,-1.08 0.036,-0.6 0.204,-1.188 0.168,-0.588 0.612,-1.068 0.552,-0.612 1.188,-0.84 0.648,-0.24 1.272,-0.264 0.624,-0.036 1.092,-0.036 h 1.62 v 2.352 h -1.5 q -0.828,0 -1.236,0.42 -0.396,0.408 -0.396,1.08 v 13.788 z m -2.088,-10.692 v -2.268 h 8.112 v 2.268 z"
         style="font-weight:bold;-inkscape-font-specification:'Manrope Bold';fill:#ffffff;stroke:#ffffff;stroke-width:0.29456;stroke-linecap:round;stroke-linejoin:round;stroke-miterlimit:10;stroke-dasharray:none;stroke-opacity:1;paint-order:stroke fill markers"
         id="path103276" />
      <path
         d="m 56.477333,26.643646 2.496,-6.852 0.048,2.016 -5.652,-13.884 h 3.012 l 4.008,10.272 h -0.768 l 3.9,-10.272 h 2.892 l -7.224,18.72 z"
         style="font-weight:bold;-inkscape-font-specification:'Manrope Bold';fill:#ffffff;stroke:#ffffff;stroke-width:0.29456;stroke-linecap:round;stroke-linejoin:round;stroke-miterlimit:10;stroke-dasharray:none;stroke-opacity:1;paint-order:stroke fill markers"
         id="path103278" />
    </g>
    <circle
       style="display:inline;fill:#ffffff;fill-opacity:1;stroke:#ffffff;stroke-width:0;stroke-linecap:round;stroke-linejoin:round;paint-order:stroke fill markers"
       id="path20348-4"
       cx="66.442398"
       cy="6.2309294"
       r="1.2123991" />
    <circle
       style="display:inline;fill:#0069f5;fill-opacity:1;stroke:#f9f9f9;stroke-width:0;stroke-linecap:round;stroke-linejoin:round;stroke-miterlimit:4;stroke-dasharray:none;stroke-opacity:1;paint-order:stroke fill markers"
       id="path1688"
       cx="15.000001"
       cy="15.000001"
       inkscape:export-filename="/home/debian/Documents/GitHub/marketplace/z/logo/avatar.png"
       inkscape:export-xdpi="96"
       inkscape:export-ydpi="96"
       r="15" />
  </g>
  <g
     inkscape:groupmode="layer"
     id="layer2"
     inkscape:label="Layer 2"
     style="display:inline">
    <g
       id="path963"
       style="display:inline;fill:#ffffff;stroke:#ffffff;stroke-width:0;stroke-linecap:round;stroke-linejoin:round;stroke-miterlimit:4;stroke-dasharray:none"
       transform="matrix(1.0640189,0,0,1.0640189,-0.40809708,-0.48767517)">
      <g
         id="path3193"
         style="fill:#ffffff;stroke-width:0;stroke-miterlimit:4;stroke-dasharray:none">
        <path
           style="color:#000000;fill:#ffffff;stroke:none;stroke-width:0;stroke-miterlimit:4;stroke-dasharray:none;paint-order:stroke fill markers"
           d="m 13.634766,7.1386719 c -0.266667,0 -0.51878,0.1066705 -0.705078,0.2929687 L 6.4492187,13.912109 c -6.537e-4,6.63e-4 -0.0013,0.0013 -0.00195,0.002 -0.9651971,0.976291 -0.9651971,2.564724 0,3.541015 6.5e-4,3e-6 0.0013,3e-6 0.00195,0 l 5.4101563,5.410156 c 0.483973,0.483974 1.122108,0.724299 1.759766,0.728516 0.0019,0.002 0.0039,0.004 0.0059,0.0059 h 0.0098 c 0.0081,-0.0041 0.01588,-0.0087 0.02344,-0.01367 0.63123,-0.009 1.265045,-0.241607 1.744141,-0.720703 l 6.480468,-6.46875 c 0.186299,-0.186298 0.292969,-0.440364 0.292969,-0.707031 V 8.1386719 c 0,-0.5482104 -0.45179,-1 -1,-1 z m 0,0.5 h 7.541015 c 0.271789,0 0.5,0.2282119 0.5,0.5 v 7.5507811 c 0,0.133333 -0.05278,0.259815 -0.146484,0.353516 l -6.480469,6.46875 c -0.390221,0.39022 -0.903274,0.584384 -1.417969,0.585937 -0.515304,-0.0011 -1.02729,-0.195259 -1.417968,-0.585937 L 6.8027344,17.103516 v -0.002 c -0.7729738,-0.783354 -0.7729738,-2.052582 0,-2.835937 v -0.002 L 13.283203,7.7851562 c 0.0937,-0.093701 0.218229,-0.1464843 0.351563,-0.1464843 z m 0.310547,1 c -0.0661,5.296e-4 -0.129303,0.027215 -0.175782,0.074219 L 7.5097656,14.972656 c -0.00131,6.55e-4 -0.00261,0.0013 -0.00391,0.002 -0.3826156,0.39581 -0.383625,1.034344 0.00391,1.421875 l 5.4082034,5.408203 c 0.387531,0.387532 1.026065,0.386523 1.421875,0.0039 6.7e-4,-6.63e-4 0.0013,-0.0013 0.002,-0.002 l 6.259765,-6.25 c 0.04748,-0.04696 0.07421,-0.110956 0.07422,-0.177735 v -0.0098 -6.4804691 c -1.4e-5,-0.1380654 -0.111935,-0.2499862 -0.25,-0.25 z m 0.103515,0.5 h 6.126953 v 6.1347661 l -6.183593,6.175781 c -5.54e-4,5.35e-4 -0.0014,-5.32e-4 -0.002,0 -0.204275,0.195771 -0.526803,0.193899 -0.71875,0.002 l -5.4081568,-5.40825 c -0.191946,-0.191946 -0.1938178,-0.514475 0.00195,-0.71875 5.32e-4,-5.55e-4 -5.349e-4,-0.0014 0,-0.002 z"
           id="path84482" />
        <path
           style="color:#000000;fill:#ffffff;stroke:none;stroke-width:0;stroke-miterlimit:4;stroke-dasharray:none;paint-order:stroke fill markers"
           d="m 13.634766,7.1386719 c -0.266667,0 -0.51878,0.1066703 -0.705078,0.2929687 L 6.4492187,13.912109 c -6.537e-4,6.63e-4 -0.0013,0.0013 -0.00195,0.002 -0.9651981,0.976292 -0.9651981,2.564723 0,3.541015 6.5e-4,3e-6 0.0013,3e-6 0.00195,0 l 5.4101563,5.410156 c 0.483973,0.483974 1.122107,0.724299 1.759766,0.728516 0.0019,0.002 0.0039,0.004 0.0059,0.0059 h 0.0098 c 0.0081,-0.0041 0.01588,-0.0087 0.02344,-0.01367 0.631231,-0.009 1.265045,-0.241607 1.744141,-0.720703 l 6.480468,-6.46875 c 0.186299,-0.186298 0.292969,-0.440364 0.292969,-0.707031 V 8.1386719 c 0,-0.5482109 -0.451789,-1 -1,-1 z m 0,0.5 h 7.541015 c 0.271789,0 0.5,0.2282116 0.5,0.5 v 7.5507811 c 0,0.133333 -0.05278,0.259815 -0.146484,0.353516 l -6.480469,6.46875 c -0.390221,0.39022 -0.903273,0.584384 -1.417969,0.585937 -0.515305,-0.0011 -1.02729,-0.195259 -1.417968,-0.585937 L 6.8027344,17.103516 v -0.002 c -0.7729746,-0.783355 -0.7729746,-2.052581 0,-2.835937 v -0.002 L 13.283203,7.7851562 c 0.0937,-0.093701 0.218229,-0.1464843 0.351563,-0.1464843 z m 0.310547,1 c -0.0661,5.296e-4 -0.129303,0.027215 -0.175782,0.074219 L 7.5097656,14.972656 c -0.00131,6.55e-4 -0.00261,0.0013 -0.00391,0.002 -0.382616,0.39581 -0.3836254,1.034344 0.00391,1.421875 l 5.4082034,5.408203 c 0.387531,0.387532 1.026065,0.386523 1.421875,0.0039 6.7e-4,-6.63e-4 0.0013,-0.0013 0.002,-0.002 l 6.259765,-6.25 c 0.04748,-0.04696 0.07421,-0.110956 0.07422,-0.177735 v -0.0098 -6.4804691 c -1.4e-5,-0.1380655 -0.111935,-0.2499862 -0.25,-0.25 z m 0.103515,0.5 h 6.126953 v 6.1347661 l -6.183593,6.175781 c -5.54e-4,5.35e-4 -0.0014,-5.32e-4 -0.002,0 -0.204275,0.195771 -0.526803,0.193899 -0.71875,0.002 l -5.4081568,-5.40825 c -0.1919462,-0.191946 -0.193818,-0.514475 0.00195,-0.71875 5.32e-4,-5.55e-4 -5.349e-4,-0.0014 0,-0.002 z"
           id="path84479" />
      </g>
      <g
         id="path8833"
         style="fill:#ffffff;stroke-width:0;stroke-miterlimit:4;stroke-dasharray:none">
        <path
           style="color:#000000;fill:#ffffff;stroke:none;stroke-width:0;stroke-miterlimit:4;stroke-dasharray:none;paint-order:stroke fill markers"
           d="m 13.625649,23.348876 c 0.579999,0 1.16,-0.22 1.6,-0.66 l 6.48,-6.47 c 0.14,-0.14 0.22,-0.33 0.22,-0.53 V 8.1388754 c 0,-0.4099996 -0.34,-0.75 -0.75,-0.75 h -7.54 c -0.2,0 -0.39,0.08 -0.53,0.22 L 6.6256496,14.088876 c -0.8699991,0.879999 -0.8699991,2.310001 0,3.19 v 0 l 5.4099994,5.41 c 0.44,0.44 1.020001,0.66 1.6,0.66 z m 6.8,-7.97 -6.26,6.25 c -0.3,0.29 -0.78,0.29 -1.07,0 l -5.4099994,-5.41 c -0.2899997,-0.29 -0.2899997,-0.77 0,-1.07 L 13.945649,8.8888754 h 6.48 v 6.4800006 z"
           id="path84476" />
        <path
           style="color:#000000;fill:#ffffff;stroke:none;stroke-width:0;stroke-miterlimit:4;stroke-dasharray:none;paint-order:stroke fill markers"
           d="m 13.625649,23.348876 c 0.58,0 1.16,-0.22 1.6,-0.66 l 6.48,-6.47 c 0.14,-0.14 0.22,-0.33 0.22,-0.53 V 8.1388754 c 0,-0.41 -0.34,-0.75 -0.75,-0.75 h -7.54 c -0.2,0 -0.39,0.08 -0.53,0.22 L 6.6256496,14.088876 c -0.87,0.88 -0.87,2.31 0,3.19 v 0 l 5.4099994,5.41 c 0.44,0.44 1.02,0.66 1.6,0.66 z m 6.8,-7.97 -6.26,6.25 c -0.3,0.29 -0.78,0.29 -1.07,0 l -5.4099994,-5.41 c -0.29,-0.29 -0.29,-0.77 0,-1.07 L 13.945649,8.8888754 h 6.48 v 6.4800006 z"
           id="path84473" />
      </g>
    </g>
  </g>
  <g
     inkscape:groupmode="layer"
     id="layer3"
     inkscape:label="Layer 3"
     style="display:inline">
    <g
       id="path963-4"
       style="display:inline;fill:#0069f5;fill-opacity:1;stroke:#ffffff;stroke-width:0;stroke-linecap:round;stroke-linejoin:round;stroke-miterlimit:4;stroke-dasharray:none"
       transform="matrix(0,-1.0640189,-1.0640189,0,22.416523,39.030533)">
      <g
         id="path3193-3"
         style="fill:#0069f5;fill-opacity:1;stroke-width:0;stroke-miterlimit:4;stroke-dasharray:none">
        <path
           style="color:#000000;fill:#0069f5;fill-opacity:1;stroke:none;stroke-width:0;stroke-miterlimit:4;stroke-dasharray:none;paint-order:stroke fill markers"
           d="m 13.634766,7.1386719 c -0.266667,0 -0.51878,0.1066705 -0.705078,0.2929687 L 6.4492187,13.912109 c -6.537e-4,6.63e-4 -0.0013,0.0013 -0.00195,0.002 -0.9651971,0.976291 -0.9651971,2.564724 0,3.541015 6.5e-4,3e-6 0.0013,3e-6 0.00195,0 l 5.4101563,5.410156 c 0.483973,0.483974 1.122108,0.724299 1.759766,0.728516 0.0019,0.002 0.0039,0.004 0.0059,0.0059 h 0.0098 c 0.0081,-0.0041 0.01588,-0.0087 0.02344,-0.01367 0.63123,-0.009 1.265045,-0.241607 1.744141,-0.720703 l 6.480468,-6.46875 c 0.186299,-0.186298 0.292969,-0.440364 0.292969,-0.707031 V 8.1386719 c 0,-0.5482104 -0.45179,-1 -1,-1 z m 0,0.5 h 7.541015 c 0.271789,0 0.5,0.2282119 0.5,0.5 v 7.5507811 c 0,0.133333 -0.05278,0.259815 -0.146484,0.353516 l -6.480469,6.46875 c -0.390221,0.39022 -0.903274,0.584384 -1.417969,0.585937 -0.515304,-0.0011 -1.02729,-0.195259 -1.417968,-0.585937 L 6.8027344,17.103516 v -0.002 c -0.7729738,-0.783354 -0.7729738,-2.052582 0,-2.835937 v -0.002 L 13.283203,7.7851562 c 0.0937,-0.093701 0.218229,-0.1464843 0.351563,-0.1464843 z m 0.310547,1 c -0.0661,5.296e-4 -0.129303,0.027215 -0.175782,0.074219 L 7.5097656,14.972656 c -0.00131,6.55e-4 -0.00261,0.0013 -0.00391,0.002 -0.3826156,0.39581 -0.383625,1.034344 0.00391,1.421875 l 5.4082034,5.408203 c 0.387531,0.387532 1.026065,0.386523 1.421875,0.0039 6.7e-4,-6.63e-4 0.0013,-0.0013 0.002,-0.002 l 6.259765,-6.25 c 0.04748,-0.04696 0.07421,-0.110956 0.07422,-0.177735 v -0.0098 -6.4804691 c -1.4e-5,-0.1380654 -0.111935,-0.2499862 -0.25,-0.25 z m 0.103515,0.5 h 6.126953 v 6.1347661 l -6.183593,6.175781 c -5.54e-4,5.35e-4 -0.0014,-5.32e-4 -0.002,0 -0.204275,0.195771 -0.526803,0.193899 -0.71875,0.002 l -5.4081568,-5.40825 c -0.191946,-0.191946 -0.1938178,-0.514475 0.00195,-0.71875 5.32e-4,-5.55e-4 -5.349e-4,-0.0014 0,-0.002 z"
           id="path84470" />
        <path
           style="color:#000000;fill:#0069f5;fill-opacity:1;stroke:none;stroke-width:0;stroke-miterlimit:4;stroke-dasharray:none;paint-order:stroke fill markers"
           d="m 13.634766,7.1386719 c -0.266667,0 -0.51878,0.1066703 -0.705078,0.2929687 L 6.4492187,13.912109 c -6.537e-4,6.63e-4 -0.0013,0.0013 -0.00195,0.002 -0.9651981,0.976292 -0.9651981,2.564723 0,3.541015 6.5e-4,3e-6 0.0013,3e-6 0.00195,0 l 5.4101563,5.410156 c 0.483973,0.483974 1.122107,0.724299 1.759766,0.728516 0.0019,0.002 0.0039,0.004 0.0059,0.0059 h 0.0098 c 0.0081,-0.0041 0.01588,-0.0087 0.02344,-0.01367 0.631231,-0.009 1.265045,-0.241607 1.744141,-0.720703 l 6.480468,-6.46875 c 0.186299,-0.186298 0.292969,-0.440364 0.292969,-0.707031 V 8.1386719 c 0,-0.5482109 -0.451789,-1 -1,-1 z m 0,0.5 h 7.541015 c 0.271789,0 0.5,0.2282116 0.5,0.5 v 7.5507811 c 0,0.133333 -0.05278,0.259815 -0.146484,0.353516 l -6.480469,6.46875 c -0.390221,0.39022 -0.903273,0.584384 -1.417969,0.585937 -0.515305,-0.0011 -1.02729,-0.195259 -1.417968,-0.585937 L 6.8027344,17.103516 v -0.002 c -0.7729746,-0.783355 -0.7729746,-2.052581 0,-2.835937 v -0.002 L 13.283203,7.7851562 c 0.0937,-0.093701 0.218229,-0.1464843 0.351563,-0.1464843 z m 0.310547,1 c -0.0661,5.296e-4 -0.129303,0.027215 -0.175782,0.074219 L 7.5097656,14.972656 c -0.00131,6.55e-4 -0.00261,0.0013 -0.00391,0.002 -0.382616,0.39581 -0.3836254,1.034344 0.00391,1.421875 l 5.4082034,5.408203 c 0.387531,0.387532 1.026065,0.386523 1.421875,0.0039 6.7e-4,-6.63e-4 0.0013,-0.0013 0.002,-0.002 l 6.259765,-6.25 c 0.04748,-0.04696 0.07421,-0.110956 0.07422,-0.177735 v -0.0098 -6.4804691 c -1.4e-5,-0.1380655 -0.111935,-0.2499862 -0.25,-0.25 z m 0.103515,0.5 h 6.126953 v 6.1347661 l -6.183593,6.175781 c -5.54e-4,5.35e-4 -0.0014,-5.32e-4 -0.002,0 -0.204275,0.195771 -0.526803,0.193899 -0.71875,0.002 l -5.4081568,-5.40825 c -0.1919462,-0.191946 -0.193818,-0.514475 0.00195,-0.71875 5.32e-4,-5.55e-4 -5.349e-4,-0.0014 0,-0.002 z"
           id="path84467" />
      </g>
      <g
         id="path8833-3"
         style="fill:#0069f5;fill-opacity:1;stroke-width:0;stroke-miterlimit:4;stroke-dasharray:none">
        <path
           style="color:#000000;fill:#0069f5;fill-opacity:1;stroke:none;stroke-width:0;stroke-miterlimit:4;stroke-dasharray:none;paint-order:stroke fill markers"
           d="m 13.625649,23.348876 c 0.579999,0 1.16,-0.22 1.6,-0.66 l 6.48,-6.47 c 0.14,-0.14 0.22,-0.33 0.22,-0.53 V 8.1388754 c 0,-0.4099996 -0.34,-0.75 -0.75,-0.75 h -7.54 c -0.2,0 -0.39,0.08 -0.53,0.22 L 6.6256496,14.088876 c -0.8699991,0.879999 -0.8699991,2.310001 0,3.19 v 0 l 5.4099994,5.41 c 0.44,0.44 1.020001,0.66 1.6,0.66 z m 6.8,-7.97 -6.26,6.25 c -0.3,0.29 -0.78,0.29 -1.07,0 l -5.4099994,-5.41 c -0.2899997,-0.29 -0.2899997,-0.77 0,-1.07 L 13.945649,8.8888754 h 6.48 v 6.4800006 z"
           id="path84464" />
        <path
           style="color:#000000;fill:#0069f5;fill-opacity:1;stroke:none;stroke-width:0;stroke-miterlimit:4;stroke-dasharray:none;paint-order:stroke fill markers"
           d="m 13.625649,23.348876 c 0.58,0 1.16,-0.22 1.6,-0.66 l 6.48,-6.47 c 0.14,-0.14 0.22,-0.33 0.22,-0.53 V 8.1388754 c 0,-0.41 -0.34,-0.75 -0.75,-0.75 h -7.54 c -0.2,0 -0.39,0.08 -0.53,0.22 L 6.6256496,14.088876 c -0.87,0.88 -0.87,2.31 0,3.19 v 0 l 5.4099994,5.41 c 0.44,0.44 1.02,0.66 1.6,0.66 z m 6.8,-7.97 -6.26,6.25 c -0.3,0.29 -0.78,0.29 -1.07,0 l -5.4099994,-5.41 c -0.29,-0.29 -0.29,-0.77 0,-1.07 L 13.945649,8.8888754 h 6.48 v 6.4800006 z"
           id="path84461" />
      </g>
    </g>
  </g>
</svg>
