<?xml version="1.0" encoding="UTF-8" standalone="no"?>
<svg
   id="icon"
   width="32"
   height="32"
   viewBox="0 0 32 32"
   version="1.1"
   sodipodi:docname="wallet.svg"
   inkscape:version="1.1.2 (0a00cf5339, 2022-02-04)"
   xmlns:inkscape="http://www.inkscape.org/namespaces/inkscape"
   xmlns:sodipodi="http://sodipodi.sourceforge.net/DTD/sodipodi-0.dtd"
   xmlns="http://www.w3.org/2000/svg"
   xmlns:svg="http://www.w3.org/2000/svg">
  <sodipodi:namedview
     id="namedview12"
     pagecolor="#ffffff"
     bordercolor="#666666"
     borderopacity="1.0"
     inkscape:pageshadow="2"
     inkscape:pageopacity="0.0"
     inkscape:pagecheckerboard="0"
     showgrid="false"
     inkscape:zoom="26.21875"
     inkscape:cx="16"
     inkscape:cy="16.01907"
     inkscape:window-width="1920"
     inkscape:window-height="1011"
     inkscape:window-x="0"
     inkscape:window-y="32"
     inkscape:window-maximized="1"
     inkscape:current-layer="icon" />
  <defs
     id="defs4">
    <style
       id="style2">
      .cls-1 {
        fill: none;
      }
    </style>
  </defs>
  <path
     d="M16,8a5,5,0,1,0,5,5A5,5,0,0,0,16,8Zm0,8a3,3,0,1,1,3-3A3.0034,3.0034,0,0,1,16,16Z"
     id="path6"
     style="fill:#ffffff" />
  <path
     d="M16,2A14,14,0,1,0,30,16,14.0158,14.0158,0,0,0,16,2ZM10,26.3765V25a3.0033,3.0033,0,0,1,3-3h6a3.0033,3.0033,0,0,1,3,3v1.3765a11.8989,11.8989,0,0,1-12,0Zm13.9925-1.4507A5.0016,5.0016,0,0,0,19,20H13a5.0016,5.0016,0,0,0-4.9925,4.9258,12,12,0,1,1,15.985,0Z"
     id="path8"
     style="fill:#ffffff" />
  <rect
     id="_Transparent_Rectangle_"
     data-name="&lt;Transparent Rectangle&gt;"
     class="cls-1"
     width="32"
     height="32" />
</svg>
