<?xml version="1.0" encoding="UTF-8" standalone="no"?>
<!-- Created with Inkscape (http://www.inkscape.org/) -->

<svg
   width="8.5in"
   height="11in"
   viewBox="0 0 816 1056"
   version="1.1"
   id="svg1"
   inkscape:version="1.3 (0e150ed6c4, 2023-07-21)"
   sodipodi:docname="arka-cover.svg"
   inkscape:export-filename="arka-cover.png"
   inkscape:export-xdpi="96"
   inkscape:export-ydpi="96"
   xmlns:inkscape="http://www.inkscape.org/namespaces/inkscape"
   xmlns:sodipodi="http://sodipodi.sourceforge.net/DTD/sodipodi-0.dtd"
   xmlns="http://www.w3.org/2000/svg"
   xmlns:svg="http://www.w3.org/2000/svg">
  <sodipodi:namedview
     id="namedview1"
     pagecolor="#ffffff"
     bordercolor="#000000"
     borderopacity="0.25"
     inkscape:showpageshadow="2"
     inkscape:pageopacity="0.0"
     inkscape:pagecheckerboard="0"
     inkscape:deskcolor="#d1d1d1"
     inkscape:document-units="in"
     inkscape:zoom="0.54439187"
     inkscape:cx="550.15517"
     inkscape:cy="548.31826"
     inkscape:window-width="2560"
     inkscape:window-height="1043"
     inkscape:window-x="1920"
     inkscape:window-y="0"
     inkscape:window-maximized="1"
     inkscape:current-layer="layer1" />
  <defs
     id="defs1" />
  <g
     inkscape:label="Layer 1"
     inkscape:groupmode="layer"
     id="layer1">
    <rect
       style="fill:#181a20;fill-opacity:1;stroke:#fff11c;stroke-width:0;stroke-linecap:round;stroke-linejoin:round"
       id="rect1"
       width="816"
       height="1056"
       x="5.3125001e-07"
       y="5.1538825e-07" />
    <path
       style="font-weight:bold;font-size:37.3333px;font-family:Syncopate;-inkscape-font-specification:'Syncopate Bold';white-space:pre;fill:#ffffff;stroke:#fff11c;stroke-width:0;stroke-linecap:round;stroke-linejoin:round"
       d="m 250.51616,523.10097 -13.38413,26.8944 H 216 l 36.7003,-69.99505 h 21.13201 l 36.70031,69.99505 h -21.13203 c -5.83628,-17.9949 -22.65188,-20.0348 -38.88443,-26.8944 z m -0.0117,-0.003 h 25.62386 l -12.76086,-25.77674 z m 90.44958,26.89719 H 322.01691 V 480 h 47.47048 c 5.10437,0 9.42605,0.52643 12.96506,1.57923 3.57306,1.05281 6.46552,2.54712 8.67741,4.48294 2.24593,1.93583 3.86229,4.27919 4.84912,7.03007 1.0209,2.71696 1.53132,5.75651 1.53132,9.11869 0,2.95467 -0.42535,5.53575 -1.27608,7.74329 -0.81671,2.20749 -1.93966,4.10934 -3.36885,5.70557 -1.39522,1.56224 -3.02861,2.8867 -4.90019,3.97349 -1.87163,1.08679 -3.84531,1.98678 -5.92106,2.69998 l 22.96961,27.66178 h -22.15292 l -21.2341,-25.77691 h -20.67264 z m 37.41493,-47.88599 c 0,-1.35845 -0.18705,-2.51315 -0.56148,-3.46407 -0.3403,-0.95092 -0.95283,-1.71505 -1.83758,-2.29242 -0.88476,-0.61131 -2.07578,-1.05278 -3.57303,-1.3245 -1.46326,-0.27159 -3.30082,-0.40754 -5.51271,-0.40754 h -25.93013 v 14.97708 h 25.93013 c 2.21189,0 4.04945,-0.13571 5.51271,-0.4075 1.49725,-0.27159 2.68827,-0.69627 3.57303,-1.27358 0.88475,-0.61132 1.49728,-1.39246 1.83758,-2.34336 0.37432,-0.95092 0.56148,-2.10564 0.56148,-3.46411 z m 59.26152,4.58484 L 476.42358,480 h 25.36864 l -47.21525,33.57111 50.37995,36.42393 h -27.61451 l -39.71186,-29.08798 v 29.0882 h -19.03881 v -69.99504 h 19.03924 z m 102.33308,16.40326 -13.36422,26.89789 h -21.132 L 542.16765,480 h 21.13202 L 600,549.99504 h -21.13206 c -5.83856,-18.00035 -22.66641,-20.03849 -38.90434,-26.89789 z m 0.008,2.6e-4 h 25.62385 l -12.76085,-25.77697 z"
       id="text1"
       aria-label="ARKA"
       sodipodi:nodetypes="cccccccccccccccscccsccsccccccscccsccscccscccccccccccccccccccccccc" />
  </g>
</svg>
