<?xml version="1.0" encoding="UTF-8" standalone="no"?>
<!-- Created with Inkscape (http://www.inkscape.org/) -->

<svg
   width="120px"
   height="30px"
   viewBox="0 0 120 30"
   version="1.1"
   id="SVGRoot"
   sodipodi:docname="logo-white.svg"
   inkscape:version="1.3.2 (091e20ef0f, 2023-11-25)"
   inkscape:export-filename="logo-white.png"
   inkscape:export-xdpi="121.6"
   inkscape:export-ydpi="121.6"
   xmlns:inkscape="http://www.inkscape.org/namespaces/inkscape"
   xmlns:sodipodi="http://sodipodi.sourceforge.net/DTD/sodipodi-0.dtd"
   xmlns="http://www.w3.org/2000/svg"
   xmlns:svg="http://www.w3.org/2000/svg">
  <sodipodi:namedview
     id="namedview137"
     pagecolor="#ffffff"
     bordercolor="#000000"
     borderopacity="0.25"
     inkscape:showpageshadow="2"
     inkscape:pageopacity="0.0"
     inkscape:pagecheckerboard="0"
     inkscape:deskcolor="#d1d1d1"
     inkscape:document-units="px"
     showgrid="false"
     inkscape:zoom="12.362687"
     inkscape:cx="68.350836"
     inkscape:cy="10.151515"
     inkscape:window-width="1920"
     inkscape:window-height="1043"
     inkscape:window-x="1920"
     inkscape:window-y="0"
     inkscape:window-maximized="1"
     inkscape:current-layer="layer1"
     inkscape:pageshadow="2"
     showguides="false" />
  <defs
     id="defs132">
    <rect
       x="-1.4777668"
       y="42.333266"
       width="127.8846"
       height="23.821752"
       id="rect3454" />
  </defs>
  <g
     inkscape:label="Layer 1"
     inkscape:groupmode="layer"
     id="layer1"
     style="display:inline">
    <g
       aria-label="pαirfy"
       transform="matrix(0.9112291,0,0,0.91480303,34.497263,2.4435739)"
       id="text2212"
       style="font-size:24px;font-family:Manrope;-inkscape-font-specification:Manrope;letter-spacing:-0.25px;fill:#f2f2f2;stroke:#f2f2f2;stroke-width:0.399513;stroke-linecap:round;stroke-linejoin:round;stroke-miterlimit:7;paint-order:stroke fill markers">
      <g
         id="path103268"
         style="fill:#f2f2f2">
        <path
           style="color:#000000;-inkscape-font-specification:'Manrope Bold';stroke:none;-inkscape-stroke:none;fill:#f2f2f2"
           d="m 6.8945312,7.3632812 c -1.2644267,0 -2.3450708,0.3106533 -3.2226562,0.9375001 -0.072175,0.051355 -0.09478,0.1563572 -0.1640625,0.2109375 V 7.9238281 A 0.19977648,0.19977648 0 0 0 3.3066406,7.7246094 H 0.75195312 A 0.19977648,0.19977648 0 0 0 0.55078125,7.9238281 V 26.644531 A 0.19977648,0.19977648 0 0 0 0.75195312,26.84375 H 3.6679688 a 0.19977648,0.19977648 0 0 0 0.1992187,-0.199219 v -6.0625 c 0.8677043,0.561703 1.9095923,0.861328 3.1367187,0.861328 1.225515,0 2.3081142,-0.310381 3.2304688,-0.933593 0.917955,-0.620241 1.631192,-1.468493 2.132813,-2.529297 0.501813,-1.061213 0.751953,-2.255101 0.751953,-3.576172 0,-1.337171 -0.253082,-2.537675 -0.763672,-3.591797 C 11.845404,9.7512368 11.120043,8.9088462 10.185547,8.296875 9.2549157,7.674138 8.1505046,7.3632813 6.8945312,7.3632812 Z m 0,0.4003907 c 1.1913589,0 2.2092561,0.2886339 3.0703126,0.8652344 a 0.19977648,0.19977648 0 0 0 0.00195,0.00195 c 0.8735011,0.5720276 1.5473621,1.352734 2.0292971,2.3554686 0.481409,0.993876 0.722656,2.131143 0.722656,3.417969 0,1.270926 -0.236752,2.403464 -0.710937,3.40625 -0.474379,1.003193 -1.138051,1.787429 -1.996094,2.367187 -0.8536435,0.576786 -1.8493301,0.865235 -3.0078128,0.865235 -1.2323917,0 -2.2482494,-0.289807 -3.0664062,-0.863282 -0.031298,-0.02194 -0.039609,-0.06732 -0.070312,-0.08984 v -2.792969 c 0.2094823,0.350291 0.3748428,0.747861 0.6875,0.986328 a 0.19977648,0.19977648 0 0 0 0.00195,0.002 c 0.5213958,0.382357 1.1957502,0.566407 2.0019531,0.566406 0.785292,0 1.455126,-0.199191 1.9824219,-0.605468 C 9.0598799,17.846313 9.444448,17.302474 9.6875,16.632812 v -0.002 c 0.2487784,-0.672403 0.371094,-1.415078 0.371094,-2.226562 0,-0.804383 -0.1236314,-1.541923 -0.3730471,-2.207031 -0.2514985,-0.677631 -0.648418,-1.225742 -1.1835938,-1.625 -0.5430895,-0.413219 -1.230823,-0.6171879 -2.0390625,-0.6171879 -0.7678528,0 -1.4157068,0.1914129 -1.9199219,0.5820309 -0.4690877,0.35586 -0.7998103,0.87252 -1.0351562,1.488282 V 9.1347656 C 3.6628256,8.9920222 3.7293317,8.7500579 3.9023438,8.6269531 a 0.19977648,0.19977648 0 0 0 0.00195,0 C 4.7067098,8.0538011 5.6949605,7.7636719 6.8945312,7.7636719 Z M 0.95117188,8.1230469 H 3.1074219 V 9.0253906 C 2.5771046,9.5570491 2.0237271,10.065714 1.7070312,10.822266 c -0.4435713,1.059642 -0.6640624,2.255973 -0.6640625,3.582031 0,1.310332 0.2208565,2.501382 0.6640625,3.568359 0.3910147,0.934091 1.0262818,1.633585 1.7597657,2.228516 v 6.242187 H 0.95117188 Z M 3.1074219,9.6503906 v 4.7539064 2.615234 a 0.19977648,0.19977648 0 0 0 0.1992187,0.199219 h 0.1601563 v 2.363281 C 2.9283523,19.072353 2.3892895,18.566363 2.0761719,17.818359 1.6553788,16.805339 1.4433594,15.669963 1.4433594,14.404297 c 0,-1.28194 0.2123847,-2.423379 0.6328125,-3.427734 0.236885,-0.565893 0.6737219,-0.900346 1.03125,-1.3261724 z m 3.3554687,0.7050784 c 0.7430498,0 1.3341402,0.181108 1.7988282,0.535156 a 0.19977648,0.19977648 0 0 0 0.00195,0.002 c 0.4720968,0.352199 0.8202751,0.82822 1.0488281,1.445313 0.2305838,0.61489 0.3476563,1.30279 0.3476563,2.066406 0,0.771822 -0.1168623,1.4667 -0.3476563,2.089844 a 0.19977648,0.19977648 0 0 0 0,0.002 c -0.220978,0.609594 -0.5589078,1.081697 -1.015625,1.433593 -0.4487031,0.345723 -1.0195747,0.521485 -1.7382813,0.521485 -0.7440508,0 -1.3234745,-0.166157 -1.7617187,-0.486328 -4.111e-4,-3.14e-4 4.109e-4,-0.0016 0,-0.002 C 4.3591814,17.628654 4.033526,17.16886 3.8203125,16.560547 v -0.002 c -0.2071682,-0.614549 -0.3125,-1.33215 -0.3125,-2.154297 0,-0.830302 0.1057054,-1.548508 0.3125,-2.154297 v -0.002 c 0.2135654,-0.609321 0.5353623,-1.066765 0.9648437,-1.392578 a 0.19977648,0.19977648 0 0 0 0,-0.002 C 5.2087405,10.524873 5.7594603,10.355469 6.4628906,10.355469 Z M 3.5078125,16.78125 c 0.00614,0.01607 0.021034,0.02315 0.027344,0.03906 h -0.027344 z"
           id="path1" />
        <path
           style="color:#000000;-inkscape-font-specification:'Manrope Bold';stroke:none;-inkscape-stroke:none;fill:#f2f2f2"
           d="m 7.0034693,21.243646 q -1.896,0 -3.18,-0.9 -1.284,-0.9 -1.932,-2.448 -0.648,-1.56 -0.648,-3.492 0,-1.956 0.648,-3.504 0.648,-1.548 1.896,-2.436 1.26,-0.9 3.108,-0.9 1.836,0 3.1799997,0.9 1.356,0.888 2.1,2.436 0.744,1.536 0.744,3.504 0,1.944 -0.732,3.492 -0.732,1.548 -2.064,2.448 -1.3319997,0.9 -3.1199997,0.9 z m -6.252,5.4 v -18.72 h 2.556 v 9.096 h 0.36 v 9.624 z m 5.808,-7.992 q 1.128,0 1.86,-0.564 0.732,-0.564 1.08,-1.524 0.36,-0.972 0.36,-2.16 0,-1.176 -0.36,-2.136 -0.36,-0.972 -1.116,-1.536 -0.756,-0.576 -1.92,-0.576 -1.104,0 -1.8,0.54 -0.696,0.528 -1.032,1.488 -0.324,0.948 -0.324,2.22 0,1.26 0.324,2.22 0.336,0.96 1.044,1.5 0.72,0.528 1.884,0.528 z"
           id="path2" />
      </g>
      <g
         id="path103270"
         style="fill:#f2f2f2">
        <path
           style="color:#000000;-inkscape-font-specification:'Manrope Bold';stroke:none;-inkscape-stroke:none;fill:#f2f2f2"
           d="m 20.650391,7.3632812 c -1.271549,0 -2.38742,0.3109803 -3.326172,0.9335938 -0.934497,0.6119712 -1.659858,1.4543618 -2.169922,2.515625 -0.51059,1.054122 -0.763672,2.254626 -0.763672,3.591797 0,1.32066 0.244797,2.51518 0.738281,3.576172 0.501801,1.061186 1.218468,1.909165 2.144531,2.529297 0.930942,0.623398 2.036331,0.933593 3.292969,0.933593 0.988298,0 1.878793,-0.211727 2.66211,-0.636718 v 0.002 c 0.443794,-0.238248 0.710592,-0.646065 1.048828,-0.986328 v 1.060546 a 0.19977648,0.19977648 0 0 0 0.199218,0.201172 h 2.556641 a 0.19977648,0.19977648 0 0 0 0.199219,-0.201172 V 7.9238281 A 0.19977648,0.19977648 0 0 0 27.033203,7.7246094 h -2.556641 a 0.19977648,0.19977648 0 0 0 -0.199218,0.1992187 v 1.015625 C 23.952681,8.6133566 23.695753,8.2172555 23.279297,7.9882812 h -0.002 c -0.75287,-0.417864 -1.63214,-0.625 -2.626953,-0.625 z m 0,0.4003907 c 0.940484,0 1.746816,0.1926755 2.433593,0.5742187 a 0.19977648,0.19977648 0 0 0 0.002,0 c 0.500194,0.2748315 0.838283,0.7120871 1.191407,1.1347657 v 0.9589847 a 0.19977648,0.19977648 0 0 0 0.361328,0.117187 L 25.083984,9.9375 a 0.19977648,0.19977648 0 0 0 0.0078,-0.2226562 C 24.989191,9.5476347 24.796767,9.4713841 24.677734,9.3203125 V 8.1230469 h 2.15625 V 20.683594 h -2.15625 v -1.238282 c 0.117352,-0.149618 0.31392,-0.225575 0.414063,-0.390625 a 0.19977648,0.19977648 0 0 0 -0.0098,-0.222656 l -0.443359,-0.599609 a 0.19977648,0.19977648 0 0 0 -0.361328,0.11914 v 0.939454 c -0.361319,0.434673 -0.708908,0.879872 -1.238282,1.164062 a 0.19977648,0.19977648 0 0 0 0,0.002 c -0.720681,0.391008 -1.540956,0.585938 -2.472656,0.585938 -1.191359,0 -2.209256,-0.288634 -3.070312,-0.865235 -0.865935,-0.579867 -1.531662,-1.364375 -2.00586,-2.367187 -0.466514,-1.003006 -0.701171,-2.134913 -0.701171,-3.40625 0,-1.286826 0.2432,-2.424093 0.724609,-3.417969 0.481934,-1.0027346 1.155795,-1.783441 2.029297,-2.3554686 0.868937,-0.5767282 1.899642,-0.8671875 3.107422,-0.8671875 z m 0.394531,2.1914062 c -0.751857,0 -1.406942,0.1875879 -1.947266,0.5644529 -0.537821,0.367085 -0.951995,0.893483 -1.236328,1.5625 -0.276594,0.66215 -0.412109,1.441827 -0.412109,2.333985 0,0.803703 0.120422,1.538556 0.361328,2.203125 0.243181,0.670845 0.629694,1.219297 1.15625,1.626953 a 0.19977648,0.19977648 0 0 0 0.002,0 c 0.536377,0.406608 1.225083,0.605468 2.041016,0.605468 0.783167,0 1.439915,-0.184954 1.945312,-0.568359 0.505283,-0.385385 0.873094,-0.92351 1.099609,-1.59375 v -0.002 c 0.232609,-0.665324 0.345704,-1.426165 0.345704,-2.283203 0,-0.864865 -0.1127,-1.627018 -0.345704,-2.285156 v -0.002 C 23.828337,11.447429 23.46493,10.915003 22.966797,10.537109 22.462582,10.14649 21.812775,9.9550781 21.044922,9.9550781 Z m 0,0.4003909 c 0.70343,0 1.25415,0.169404 1.677734,0.498047 a 0.19977648,0.19977648 0 0 0 0.002,0.002 c 0.429449,0.325788 0.745483,0.783128 0.951172,1.392578 a 0.19977648,0.19977648 0 0 0 0.002,0.002 c 0.214602,0.605484 0.324219,1.323886 0.324219,2.154297 0,0.822243 -0.109221,1.540017 -0.324219,2.154297 a 0.19977648,0.19977648 0 0 0 -0.002,0.002 c -0.205531,0.608981 -0.524594,1.070003 -0.96289,1.404297 -0.422602,0.320594 -0.982294,0.486328 -1.703125,0.486328 -0.752066,0 -1.343206,-0.178047 -1.798829,-0.523438 -0.4648,-0.360228 -0.80477,-0.834753 -1.02539,-1.443359 -0.223093,-0.61543 -0.335938,-1.304064 -0.335938,-2.068359 0,-0.851841 0.129454,-1.577839 0.38086,-2.179688 0.259584,-0.609557 0.622349,-1.066302 1.091797,-1.386719 a 0.19977648,0.19977648 0 0 0 0.002,-0.002 c 0.46739,-0.326431 1.033256,-0.492187 1.720703,-0.492187 z"
           id="path3" />
        <path
           style="color:#000000;-inkscape-font-specification:'Manrope Bold';stroke:none;-inkscape-stroke:none;fill:#f2f2f2"
           d="m 20.565451,21.243646 q -1.836,0 -3.18,-0.9 -1.344,-0.9 -2.076,-2.448 -0.72,-1.548 -0.72,-3.492 0,-1.968 0.744,-3.504 0.744,-1.548 2.1,-2.436 1.356,-0.9 3.216,-0.9 1.452,0 2.532,0.6 1.092,0.6 1.74,1.656 l -0.444,0.612 v -2.508 h 2.556 v 12.96 h -2.556 v -2.532 l 0.444,0.6 q -0.648,1.068 -1.788,1.68 -1.128,0.612 -2.568,0.612 z m 0.444,-2.592 q 1.128,0 1.824,-0.528 0.708,-0.54 1.032,-1.5 0.336,-0.96 0.336,-2.22 0,-1.272 -0.336,-2.22 -0.324,-0.96 -1.02,-1.488 -0.696,-0.54 -1.8,-0.54 -1.08,0 -1.836,0.528 -0.756,0.516 -1.164,1.476 -0.396,0.948 -0.396,2.256 0,1.176 0.348,2.136 0.348,0.96 1.092,1.536 0.744,0.564 1.92,0.564 z"
           id="path4" />
      </g>
      <g
         id="path103272"
         style="fill:#f2f2f2">
        <path
           style="color:#000000;-inkscape-font-specification:'Manrope Bold';stroke:none;-inkscape-stroke:none;fill:#f2f2f2"
           d="M 30.382812,7.7246094 A 0.19977648,0.19977648 0 0 0 30.183594,7.9238281 V 20.882812 a 0.19977648,0.19977648 0 0 0 0.199218,0.201172 h 2.892579 a 0.19977648,0.19977648 0 0 0 0.199218,-0.201172 V 7.9238281 A 0.19977648,0.19977648 0 0 0 33.275391,7.7246094 Z m 0.201172,0.3984375 h 2.492188 V 20.683594 h -2.492188 z"
           id="path5" />
        <path
           style="color:#000000;-inkscape-font-specification:'Manrope Bold';stroke:none;-inkscape-stroke:none;fill:#f2f2f2"
           d="m 30.38345,20.883646 v -12.96 h 2.892 v 12.96 z"
           id="path6" />
      </g>
      <g
         id="path103274"
         style="fill:#f2f2f2">
        <path
           style="color:#000000;-inkscape-font-specification:'Manrope Bold';stroke:none;-inkscape-stroke:none;fill:#f2f2f2"
           d="M 42.71875,7.6757812 C 42.295039,7.7010343 41.877412,7.7812597 41.470703,7.9140625 41.073712,8.0385498 40.706427,8.2135001 40.373047,8.4375 39.989496,8.674159 39.661148,8.9819632 39.380859,9.34375 V 7.9238281 A 0.19977648,0.19977648 0 0 0 39.181641,7.7246094 H 36.625 A 0.19977648,0.19977648 0 0 0 36.425781,7.9238281 V 20.882812 A 0.19977648,0.19977648 0 0 0 36.625,21.083984 h 2.904297 a 0.19977648,0.19977648 0 0 0 0.199219,-0.201172 v -6.58789 c 0,-0.47989 0.05939,-0.919858 0.173828,-1.324219 a 0.19977648,0.19977648 0 0 0 0,-0.002 c 0.113829,-0.409787 0.285488,-0.768997 0.517578,-1.083984 l 0.002,-0.002 c 0.237867,-0.31155 0.54126,-0.568062 0.917969,-0.771485 a 0.19977648,0.19977648 0 0 0 0.0078,-0.0039 c 0.372963,-0.223778 0.789432,-0.354806 1.257813,-0.392578 0.485353,-0.03852 0.904454,-0.004 1.259765,0.09961 a 0.19977648,0.19977648 0 0 0 0.25586,-0.191406 V 7.9238281 A 0.19977648,0.19977648 0 0 0 43.955078,7.7265625 C 43.5557,7.6599996 43.144473,7.643005 42.722656,7.6757812 Z m 0.02734,0.3984376 a 0.19977648,0.19977648 0 0 0 0.0039,0 c 0.334827,-0.026261 0.654493,-0.00161 0.970703,0.039063 v 2.2968747 c -0.353964,-0.07354 -0.71921,-0.12766 -1.146484,-0.09375 -0.521462,0.04205 -1.000069,0.191022 -1.425782,0.445313 -0.421294,0.227921 -0.773535,0.522101 -1.046875,0.880859 a 0.19977648,0.19977648 0 0 0 0,0.002 c -0.263149,0.356525 -0.458061,0.763473 -0.583984,1.216797 -0.125558,0.443638 -0.1875,0.921485 -0.1875,1.433594 v 6.388672 H 36.824219 V 8.1230469 h 2.158203 v 1.9238281 c -0.09771,0.186781 -0.225553,0.351571 -0.300781,0.554688 a 0.19977648,0.19977648 0 0 0 0.0293,0.191406 l 0.3125,0.408203 a 0.19977648,0.19977648 0 0 0 0.357422,-0.121094 v -0.9375 c 0.09647,-0.1745422 0.167037,-0.3698503 0.285157,-0.5273436 0.257563,-0.3406022 0.561404,-0.6190877 0.916015,-0.8378906 a 0.19977648,0.19977648 0 0 0 0.0078,-0.00391 C 40.893351,8.5685704 41.227241,8.4094559 41.59375,8.2949219 a 0.19977648,0.19977648 0 0 0 0.002,-0.00195 c 0.376062,-0.1227959 0.759429,-0.1957523 1.150391,-0.21875 z"
           id="path7" />
        <path
           style="color:#000000;-inkscape-font-specification:'Manrope Bold';stroke:none;-inkscape-stroke:none;fill:#f2f2f2"
           d="m 36.625414,20.883646 v -12.96 h 2.556 v 3.156 l -0.312,-0.408 q 0.24,-0.648 0.636,-1.176 0.408,-0.54 0.972,-0.888 0.48,-0.324 1.056,-0.504 0.588,-0.192 1.2,-0.228 0.612,-0.048 1.188,0.048 v 2.7 q -0.576,-0.168 -1.332,-0.108 -0.744,0.06 -1.344,0.42 -0.6,0.324 -0.984,0.828 -0.372,0.504 -0.552,1.152 -0.18,0.636 -0.18,1.38 v 6.588 z"
           id="path8" />
      </g>
      <g
         id="path103276"
         style="fill:#f2f2f2">
        <path
           style="color:#000000;-inkscape-font-specification:'Manrope Bold';stroke:none;-inkscape-stroke:none;fill:#f2f2f2"
           d="m 51.482422,3.0429688 c -0.317122,-1e-7 -0.684649,0.012944 -1.103516,0.037109 -0.4377,0.01726 -0.87984,0.1093592 -1.328125,0.2753907 C 48.591166,3.5205452 48.168099,3.8232677 47.783203,4.25 47.469132,4.5901219 47.247535,4.9744464 47.126953,5.3964844 47.011058,5.802117 46.940895,6.212304 46.916016,6.6269531 46.891808,7.0223447 46.878906,7.3858782 46.878906,7.71875 v 0.00586 h -1.886719 a 0.19977648,0.19977648 0 0 0 -0.201171,0.1992187 v 2.2675779 a 0.19977648,0.19977648 0 0 0 0.201171,0.199219 h 1.886719 v 10.492187 a 0.19977648,0.19977648 0 0 0 0.201172,0.201172 h 2.890625 a 0.19977648,0.19977648 0 0 0 0.201172,-0.201172 V 10.390625 h 2.931641 a 0.19977648,0.19977648 0 0 0 0.199218,-0.199219 V 7.9238281 A 0.19977648,0.19977648 0 0 0 53.103516,7.7246094 H 50.171875 V 7.0957031 c 0,-0.4087617 0.112065,-0.7087376 0.337891,-0.9414062 0.224941,-0.2315574 0.575525,-0.359375 1.09375,-0.359375 h 1.5 A 0.19977648,0.19977648 0 0 0 53.302734,5.5957031 V 3.2441406 A 0.19977648,0.19977648 0 0 0 53.103516,3.0429688 Z m 0,0.4003906 h 1.421875 v 1.953125 h -1.300781 c -0.585775,0 -1.059849,0.1520266 -1.378907,0.4804687 -0.302174,0.3113308 -0.453125,0.7315126 -0.453125,1.21875 V 7.7246094 H 47.279297 V 7.71875 c 0,-0.3231276 0.01136,-0.6777986 0.03516,-1.0664063 0.02312,-0.38535 0.08916,-0.7681178 0.197266,-1.1464843 0.103174,-0.3611096 0.289488,-0.6869573 0.566406,-0.9863282 a 0.19977648,0.19977648 0 0 0 0.002,-0.00195 C 48.430785,4.1287504 48.799665,3.8714572 49.1875,3.7324219 a 0.19977648,0.19977648 0 0 0 0.002,-0.00195 c 0.41445,-0.1535 0.815884,-0.2368339 1.208984,-0.2519532 a 0.19977648,0.19977648 0 0 0 0.0039,0 c 0.413133,-0.023835 0.7732,-0.035156 1.080078,-0.035156 z m -6.291016,4.6796875 h 1.6875 v 1.8691406 h -1.6875 z m 2.087891,0 h 2.492187 v 1.8691406 h -2.492187 z m 2.892578,0 h 2.732422 v 1.8691406 h -2.732422 z m -2.892578,2.2675781 h 2.492187 v 10.292969 h -2.492187 z"
           id="path9" />
        <path
           style="color:#000000;-inkscape-font-specification:'Manrope Bold';stroke:none;-inkscape-stroke:none;fill:#f2f2f2"
           d="m 47.079373,20.883646 v -13.164 q 0,-0.492 0.036,-1.08 0.036,-0.6 0.204,-1.188 0.168,-0.588 0.612,-1.068 0.552,-0.612 1.188,-0.84 0.648,-0.24 1.272,-0.264 0.624,-0.036 1.092,-0.036 h 1.62 v 2.352 h -1.5 q -0.828,0 -1.236,0.42 -0.396,0.408 -0.396,1.08 v 13.788 z m -2.088,-10.692 v -2.268 h 8.112 v 2.268 z"
           id="path10" />
      </g>
      <g
         id="path103278"
         style="fill:#f2f2f2">
        <path
           style="color:#000000;-inkscape-font-specification:'Manrope Bold';stroke:none;-inkscape-stroke:none;fill:#f2f2f2"
           d="m 54.195312,7.7246094 a 0.19977648,0.19977648 0 0 0 -0.183593,0.2734375 l 5.208984,12.8007811 -2.103516,5.777344 a 0.19977648,0.19977648 0 0 0 0.1875,0.267578 h 2.710938 a 0.19977648,0.19977648 0 0 0 0.1875,-0.128906 L 67.425781,7.9960937 A 0.19977648,0.19977648 0 0 0 67.240234,7.7246094 h -2.892578 a 0.19977648,0.19977648 0 0 0 -0.185547,0.1289062 l -3.33789,8.7890624 -3.429688,-8.7910155 a 0.19977648,0.19977648 0 0 0 -0.1875,-0.1269531 z m 0.296875,0.3984375 h 2.580079 L 60.613281,17.199219 60.261719,18.125 a 0.19977648,0.19977648 0 0 0 0.185547,0.269531 h 0.769531 a 0.19977648,0.19977648 0 0 0 0.185547,-0.271484 l -0.361328,-0.925781 3.445312,-9.0742191 h 2.460938 l -7.06836,18.3203121 h -2.289062 l 1.855468,-5.09375 0.216797,0.533203 a 0.19977648,0.19977648 0 0 0 0.384766,-0.08008 L 60,19.787109 a 0.19977648,0.19977648 0 0 0 -0.386719,-0.06445 l -0.1875,0.515625 z m 6.335938,9.6308591 0.0957,0.242188 h -0.1875 z"
           id="path11" />
        <path
           style="color:#000000;-inkscape-font-specification:'Manrope Bold';stroke:none;-inkscape-stroke:none;fill:#f2f2f2"
           d="m 57.303998,26.643646 2.496,-6.852 0.048,2.016 -5.652,-13.884 h 3.012 l 4.008,10.272 h -0.768 l 3.9,-10.272 h 2.892 l -7.224,18.72 z"
           id="path12" />
      </g>
    </g>
    <circle
       style="display:inline;opacity:1;fill:#f2f2f2;fill-opacity:1;stroke:#f2f2f2;stroke-width:0.753024;stroke-linecap:round;stroke-linejoin:round;stroke-miterlimit:7;stroke-dasharray:none;stroke-dashoffset:0;stroke-opacity:1;paint-order:stroke fill markers"
       id="path20348-4"
       cx="63.493195"
       cy="6.6807489"
       r="1.3042369" />
    <path
       d="m 57.266437,7.8179999 1.78253,-0.1587494 C 58.521921,1.7192663 69.217094,0.76676364 69.744139,6.7067469 v 0 C 69.43647,3.261806 66.394816,0.71827164 62.949801,1.0250811 59.504786,1.3318906 56.960486,4.3729061 57.266437,7.8179999 Z"
       id="path1-5-6"
       style="display:inline;fill:#ffe600;fill-opacity:1;stroke-width:0.894792"
       sodipodi:nodetypes="ccccsc" />
    <path
       d="m 108.91868,10.326709 -5.40156,11.452134 c -0.19644,0.413743 -0.78607,0.411329 -0.9791,-0.004 L 97.230412,10.278816 c -0.09592,-0.206515 -0.05199,-0.4510835 0.109603,-0.6115083 v 0 c 0.157218,-0.156239 0.393869,-0.200748 0.597124,-0.112298 l 5.131361,2.2240963 5.14942,-2.1819763 c 0.45477,-0.202411 0.91842,0.2650518 0.71229,0.7181493 z m -5.63663,2.543311 v 0 l -0.21456,0.09091 -0.21377,-0.09271 v 0 0 l 0.18003,7.401653 4.32103,-9.108165 z"
       id="path1-3"
       style="fill:none;fill-opacity:1;stroke-width:0.540897"
       sodipodi:nodetypes="ccccsscccccccccccccc" />
  </g>
  <g
     inkscape:groupmode="layer"
     id="layer2"
     inkscape:label="Layer 2"
     style="display:inline" />
  <g
     inkscape:groupmode="layer"
     id="layer3"
     inkscape:label="Layer 3"
     style="display:inline" />
  <g
     inkscape:groupmode="layer"
     id="layer4"
     inkscape:label="limit"
     style="display:none">
    <rect
       style="display:inline;opacity:0.557195;fill:#ff5e00;fill-opacity:1;stroke:#0069f5;stroke-width:0;stroke-linecap:round;stroke-linejoin:round;paint-order:stroke fill markers"
       id="rect1592-1"
       width="15"
       height="14.999998"
       x="1.8808064e-06"
       y="14.999999" />
    <rect
       style="display:inline;opacity:0.557195;fill:#ff0000;stroke:#0069f5;stroke-width:0;stroke-linecap:round;stroke-linejoin:round;paint-order:stroke fill markers"
       id="rect1592"
       width="120"
       height="14.999998"
       x="1.8808064e-06"
       y="6.7562792e-07" />
  </g>
</svg>
