<?xml version="1.0" encoding="UTF-8" standalone="no"?>
<!-- Created with Inkscape (http://www.inkscape.org/) -->

<svg
   width="32"
   height="32"
   version="1.1"
   viewBox="0 0 32 32"
   id="svg4"
   sodipodi:docname="formal.svg"
   inkscape:version="1.3 (0e150ed6c4, 2023-07-21)"
   xmlns:inkscape="http://www.inkscape.org/namespaces/inkscape"
   xmlns:sodipodi="http://sodipodi.sourceforge.net/DTD/sodipodi-0.dtd"
   xmlns="http://www.w3.org/2000/svg"
   xmlns:svg="http://www.w3.org/2000/svg">
  <sodipodi:namedview
     id="namedview4"
     pagecolor="#ffffff"
     bordercolor="#000000"
     borderopacity="0.25"
     inkscape:showpageshadow="2"
     inkscape:pageopacity="0.0"
     inkscape:pagecheckerboard="0"
     inkscape:deskcolor="#d1d1d1"
     inkscape:zoom="13.203125"
     inkscape:cx="21.055621"
     inkscape:cy="21.093491"
     inkscape:window-width="2560"
     inkscape:window-height="1043"
     inkscape:window-x="1920"
     inkscape:window-y="1080"
     inkscape:window-maximized="1"
     inkscape:current-layer="layer1" />
  <defs
     id="defs2">
    <linearGradient
       id="linearGradient4"
       x1=".10885"
       x2="32.109"
       y1="15.959"
       y2="15.959"
       gradientTransform="matrix(.99961 0 0 .99734 .0013492 .0030261)"
       gradientUnits="userSpaceOnUse">
      <stop
         stop-color="#fff"
         stop-opacity=".25"
         offset="0"
         id="stop1" />
      <stop
         stop-color="#fff"
         stop-opacity="0"
         offset="1"
         id="stop2" />
    </linearGradient>
  </defs>
  <g
     id="g3">
    <path
       d="m15.956 1.1367-12.501 6.0425v12.882c0 6.0039 5.7254 11.076 12.501 11.076 6.7756 0 12.499-5.072 12.499-11.076v-12.882z"
       fill="url(#linearGradient4)"
       stroke-width="0"
       id="path2" />
  </g>
  <g
     id="g4">
    <path
       d="m15.081 29.177c-6.3328 0-11.682-4.7512-11.682-10.376v-12.069l11.682-5.6591 11.682 5.6591v12.069c0 5.6243-5.3497 10.376-11.682 10.376z"
       fill="none"
       stroke="#fff"
       stroke-width="1.635"
       id="path4" />
  </g>
  <g
     inkscape:groupmode="layer"
     id="layer1"
     inkscape:label="top">
    <polygon
       transform="matrix(0.47619,0,0,0.41667,8.11867,9.3333)"
       points="22,24.201 24,28 26,28 23.098,23 26,18 24,18 22,21.897 20,18 18,18 20.905,23 18,28 20,28 "
       fill="#ffffff"
       id="polygon2" />
    <path
       class="cls-1"
       d="m 17.16667,11.833 v -0.83333 h -2.4222 a 0.9479,0.82942 0 0 0 -0.94852,0.75783 l -0.31086,2.9922 h -2.0327 v 0.83333 h 1.946 l -0.47619,4.5833 H 10.5 v 0.83333 h 2.4222 a 0.9479,0.82942 0 0 0 0.94852,-0.75783 l 0.4841,-4.6588 h 2.3356 V 14.7497 h -2.2491 l 0.30305,-2.9167 z"
       fill="#ffffff"
       stroke-width="0.44544"
       id="path3" />
  </g>
</svg>
