<?xml version="1.0" encoding="UTF-8" standalone="no"?>
<!-- Created with Inkscape (http://www.inkscape.org/) -->

<svg
   width="400px"
   height="400px"
   viewBox="0 0 400 400"
   version="1.1"
   id="SVGRoot"
   sodipodi:docname="400x400.svg"
   inkscape:version="1.1.2 (0a00cf5339, 2022-02-04)"
   inkscape:export-filename="/home/debian/avatar.png"
   inkscape:export-xdpi="96"
   inkscape:export-ydpi="96"
   xmlns:inkscape="http://www.inkscape.org/namespaces/inkscape"
   xmlns:sodipodi="http://sodipodi.sourceforge.net/DTD/sodipodi-0.dtd"
   xmlns="http://www.w3.org/2000/svg"
   xmlns:svg="http://www.w3.org/2000/svg">
  <sodipodi:namedview
     id="namedview829"
     pagecolor="#ffffff"
     bordercolor="#666666"
     borderopacity="1.0"
     inkscape:pageshadow="2"
     inkscape:pageopacity="0.0"
     inkscape:pagecheckerboard="0"
     inkscape:document-units="px"
     showgrid="false"
     inkscape:zoom="0.88642397"
     inkscape:cx="129.73476"
     inkscape:cy="127.4785"
     inkscape:window-width="1920"
     inkscape:window-height="1043"
     inkscape:window-x="1920"
     inkscape:window-y="0"
     inkscape:window-maximized="1"
     inkscape:current-layer="layer2"
     showguides="false" />
  <defs
     id="defs824" />
  <g
     inkscape:label="Layer 1"
     inkscape:groupmode="layer"
     id="layer1"
     style="display:inline" />
  <g
     inkscape:groupmode="layer"
     id="layer2"
     inkscape:label="Layer 2"
     style="display:inline">
    <path
       id="path1688"
       style="display:inline;fill:#242527;fill-opacity:1;stroke:#f9f9f9;stroke-width:0;stroke-linecap:round;stroke-linejoin:round;stroke-miterlimit:4;stroke-dasharray:none;stroke-opacity:1;paint-order:stroke fill markers"
       d="M 199.99999,5e-7 A 199.99999,199.99999 0 0 0 4.9999997e-7,199.99999 199.99999,199.99999 0 0 0 199.99999,399.99998 199.99999,199.99999 0 0 0 399.99998,199.99999 199.99999,199.99999 0 0 0 199.99999,5e-7 Z" />
    <path
       d="M 325,178.18182 H 263.11705 L 200,120.07613 273.86363,110 Z M 135.25112,200.9091 199.98864,311.37728 77.159087,200.9091 Z m 105.29433,0 v 0 L 199.98864,311.37728 Z M 236.31478,178.18182 200,120.07613 Z m 28.43635,22.72728 h 58.08978 L 199.98864,311.37728 Z M 126.13636,110 200,120.07613 136.88295,178.18182 H 75 Z"
       id="path9322"
       style="fill:#ffffff;stroke-width:11.3637"
       sodipodi:nodetypes="cccccccccccccccccccccccccc" />
  </g>
  <g
     inkscape:groupmode="layer"
     id="g2473"
     inkscape:label="Layer 3"
     style="display:inline" />
</svg>
