<?xml version="1.0" encoding="UTF-8" standalone="no"?>
<!-- Created with Inkscape (http://www.inkscape.org/) -->

<svg
   width="400px"
   height="400px"
   viewBox="0 0 400 400"
   version="1.1"
   id="SVGRoot"
   sodipodi:docname="400x400.svg"
   inkscape:version="1.1.2 (0a00cf5339, 2022-02-04)"
   inkscape:export-filename="/home/debian/avatar.png"
   inkscape:export-xdpi="96"
   inkscape:export-ydpi="96"
   xmlns:inkscape="http://www.inkscape.org/namespaces/inkscape"
   xmlns:sodipodi="http://sodipodi.sourceforge.net/DTD/sodipodi-0.dtd"
   xmlns="http://www.w3.org/2000/svg"
   xmlns:svg="http://www.w3.org/2000/svg">
  <sodipodi:namedview
     id="namedview829"
     pagecolor="#ffffff"
     bordercolor="#666666"
     borderopacity="1.0"
     inkscape:pageshadow="2"
     inkscape:pageopacity="0.0"
     inkscape:pagecheckerboard="0"
     inkscape:document-units="px"
     showgrid="false"
     inkscape:zoom="1.2535928"
     inkscape:cx="423.58252"
     inkscape:cy="252.87318"
     inkscape:window-width="1920"
     inkscape:window-height="1043"
     inkscape:window-x="1920"
     inkscape:window-y="0"
     inkscape:window-maximized="1"
     inkscape:current-layer="layer2"
     showguides="false" />
  <defs
     id="defs824" />
  <g
     inkscape:label="Layer 1"
     inkscape:groupmode="layer"
     id="layer1"
     style="display:inline" />
  <g
     inkscape:groupmode="layer"
     id="layer2"
     inkscape:label="Layer 2"
     style="display:inline">
    <path
       id="path1688"
       style="display:inline;fill:#0069f5;fill-opacity:1;stroke:#f9f9f9;stroke-width:0;stroke-linecap:round;stroke-linejoin:round;stroke-miterlimit:4;stroke-dasharray:none;stroke-opacity:1;paint-order:stroke fill markers"
       d="M 199.99999,5.0000001e-7 A 199.99999,199.99999 0 0 0 5.0000002e-7,199.99999 199.99999,199.99999 0 0 0 199.99999,399.99998 199.99999,199.99999 0 0 0 399.99998,199.99999 199.99999,199.99999 0 0 0 199.99999,5.0000001e-7 Z" />
    <g
       id="g8113"
       style="display:inline"
       transform="scale(13.333333)">
      <g
         id="path963"
         style="display:inline;fill:#ffffff;stroke:#ffffff;stroke-width:0;stroke-linecap:round;stroke-linejoin:round;stroke-miterlimit:4;stroke-dasharray:none"
         transform="matrix(1.0640189,0,0,1.0640189,-0.40809708,-0.48767517)">
        <g
           id="path3193"
           style="fill:#ffffff;stroke-width:0;stroke-miterlimit:4;stroke-dasharray:none">
          <path
             id="path84482"
             style="color:#000000;fill:#ffffff;stroke:none;stroke-width:0;stroke-miterlimit:4;stroke-dasharray:none;paint-order:stroke fill markers"
             transform="matrix(0.93983293,0,0,0.93983293,0.38354307,0.45833318)"
             d="m 14.099609,7.1074219 c -0.283738,0 -0.551775,0.1142752 -0.75,0.3125 l -6.896484,6.8945311 -0.00195,0.002 c -1.026988,1.038792 -1.026988,2.728786 0,3.767578 h 0.00195 l 5.757813,5.757813 c 0.514956,0.514957 1.192613,0.770896 1.871093,0.775391 0.002,0.0021 0.0057,0.0038 0.0078,0.0059 h 0.0098 c 0.0086,-0.0044 0.01735,-0.01034 0.02539,-0.01563 0.671641,-0.0096 1.345702,-0.255858 1.855469,-0.765625 L 22.875,16.958984 c 0.198226,-0.198224 0.3125,-0.468214 0.3125,-0.751953 V 8.171875 c 0,-0.5833062 -0.481147,-1.0644531 -1.064453,-1.0644531 z m 0,0.5332031 h 8.023438 c 0.289189,0 0.533203,0.2420623 0.533203,0.53125 v 8.035156 c 0,0.141869 -0.05655,0.275301 -0.15625,0.375 l -6.896484,6.882813 c -0.415203,0.415201 -0.960168,0.621394 -1.507813,0.623047 -0.548293,-0.0012 -1.094077,-0.207358 -1.509765,-0.623047 L 6.8300781,17.710938 v -0.002 c -0.8224587,-0.833503 -0.8224587,-2.184073 0,-3.017578 v -0.002 L 13.724609,7.7949219 c 0.0997,-0.0997 0.23313,-0.1542969 0.375,-0.1542969 z m 0.330079,1.0625 c -0.07033,5.635e-4 -0.138046,0.030065 -0.1875,0.080078 l -6.6601568,6.660156 c -0.00139,6.97e-4 -0.00252,0.0012 -0.00391,0.002 -0.4071102,0.421158 -0.4084687,1.101332 0.00391,1.513672 l 5.7539068,5.753907 c 0.41234,0.412341 1.092522,0.411072 1.513671,0.0039 l 0.002,-0.002 6.660157,-6.650391 c 0.05052,-0.04997 0.08007,-0.118399 0.08008,-0.189453 v -0.0098 -6.8945309 C 21.59139,8.8241189 21.473076,8.7031397 21.326172,8.703125 Z m 0.111328,0.5332031 h 6.517578 v 6.5273439 l -6.578125,6.570312 h -0.002 c -0.217353,0.208304 -0.56139,0.20577 -0.765625,0.002 L 7.9589844,16.582031 C 7.7547502,16.377797 7.75264,16.035712 7.9609375,15.818359 v -0.002 z" />
          <path
             id="path84479"
             style="color:#000000;fill:#ffffff;stroke:none;stroke-width:0;stroke-miterlimit:4;stroke-dasharray:none;paint-order:stroke fill markers"
             transform="matrix(0.93983293,0,0,0.93983293,0.38354307,0.45833318)"
             d="m 14.099609,7.1074219 c -0.283738,0 -0.551775,0.114275 -0.75,0.3125 l -6.896484,6.8945311 -0.00195,0.002 c -1.026989,1.038793 -1.026989,2.728785 0,3.767578 h 0.00195 l 5.757813,5.757813 c 0.514956,0.514957 1.192612,0.770896 1.871093,0.775391 0.002,0.0021 0.0057,0.0038 0.0078,0.0059 h 0.0098 c 0.0086,-0.0044 0.01735,-0.01034 0.02539,-0.01563 0.671642,-0.0096 1.345702,-0.255858 1.855469,-0.765625 L 22.875,16.958984 c 0.198226,-0.198224 0.3125,-0.468214 0.3125,-0.751953 V 8.171875 c 0,-0.5833068 -0.481146,-1.0644531 -1.064453,-1.0644531 z m 0,0.5332031 h 8.023438 c 0.289189,0 0.533203,0.242062 0.533203,0.53125 v 8.035156 c 0,0.141869 -0.05655,0.275301 -0.15625,0.375 l -6.896484,6.882813 c -0.415203,0.415201 -0.960167,0.621394 -1.507813,0.623047 -0.548294,-0.0012 -1.094077,-0.207358 -1.509765,-0.623047 L 6.8300781,17.710938 v -0.002 c -0.8224596,-0.833504 -0.8224596,-2.184072 0,-3.017578 v -0.002 L 13.724609,7.7949219 c 0.0997,-0.0997 0.23313,-0.1542969 0.375,-0.1542969 z m 0.330079,1.0625 c -0.07033,5.635e-4 -0.138046,0.030065 -0.1875,0.080078 l -6.6601568,6.660156 c -0.00139,6.97e-4 -0.00252,0.0012 -0.00391,0.002 -0.4071107,0.421158 -0.4084691,1.101332 0.00391,1.513672 l 5.7539068,5.753907 c 0.41234,0.412341 1.092522,0.411072 1.513671,0.0039 l 0.002,-0.002 6.660157,-6.650391 c 0.05052,-0.04997 0.08007,-0.118399 0.08008,-0.189453 v -0.0098 -6.8945309 C 21.59139,8.8241188 21.473076,8.7031397 21.326172,8.703125 Z m 0.111328,0.5332031 h 6.517578 v 6.5273439 l -6.578125,6.570312 h -0.002 c -0.217353,0.208304 -0.56139,0.20577 -0.765625,0.002 L 7.9589844,16.582031 C 7.75475,16.377797 7.7526397,16.035712 7.9609375,15.818359 v -0.002 z" />
        </g>
        <g
           id="path8833"
           style="fill:#ffffff;stroke-width:0;stroke-miterlimit:4;stroke-dasharray:none">
          <path
             id="path84476"
             style="color:#000000;fill:#ffffff;stroke:none;stroke-width:0;stroke-miterlimit:4;stroke-dasharray:none;paint-order:stroke fill markers"
             transform="matrix(0.93983293,0,0,0.93983293,0.38354307,0.45833318)"
             d="m 14.099609,7.375 c -0.212803,0 -0.413537,0.083459 -0.5625,0.2324219 L 6.6425781,14.503906 c -0.9256955,0.936336 -0.9256955,2.456243 0,3.392578 l 5.7558599,5.757813 c 0.468168,0.468168 1.084041,0.701172 1.701171,0.701172 0.613863,-0.0025 1.227667,-0.235479 1.69336,-0.701172 L 22.6875,16.769531 c 0.148963,-0.148962 0.234375,-0.351649 0.234375,-0.564453 V 8.171875 c 0,-0.4362473 -0.36258,-0.796875 -0.798828,-0.796875 z m 0.330079,1.5957031 h 6.894531 v 6.8945309 0.0098 l -6.660157,6.650391 c -0.319205,0.308565 -0.830106,0.308565 -1.138671,0 l -5.7558598,-5.75586 c -0.3085651,-0.308565 -0.3085651,-0.819466 0,-1.138672 z" />
          <path
             id="path84473"
             style="color:#000000;fill:#ffffff;stroke:none;stroke-width:0;stroke-miterlimit:4;stroke-dasharray:none;paint-order:stroke fill markers"
             transform="matrix(0.93983293,0,0,0.93983293,0.38354307,0.45833318)"
             d="m 14.099609,7.375 c -0.212803,0 -0.413537,0.083459 -0.5625,0.2324219 L 6.6425781,14.503906 c -0.9256964,0.936337 -0.9256964,2.456242 0,3.392578 l 5.7558599,5.757813 c 0.468168,0.468168 1.08404,0.701172 1.701171,0.701172 0.613864,-0.0025 1.227667,-0.235479 1.69336,-0.701172 L 22.6875,16.769531 c 0.148963,-0.148962 0.234375,-0.351649 0.234375,-0.564453 V 8.171875 c 0,-0.4362477 -0.36258,-0.796875 -0.798828,-0.796875 z m 0.330079,1.5957031 h 6.894531 v 6.8945309 0.0098 l -6.660157,6.650391 c -0.319205,0.308565 -0.830106,0.308565 -1.138671,0 l -5.7558598,-5.75586 c -0.3085654,-0.308565 -0.3085654,-0.819466 0,-1.138672 z" />
        </g>
      </g>
      <g
         id="path963-4"
         style="display:inline;fill:#0069f5;fill-opacity:1;stroke:#ffffff;stroke-width:0;stroke-linecap:round;stroke-linejoin:round;stroke-miterlimit:4;stroke-dasharray:none"
         transform="matrix(0,-1.0640189,-1.0640189,0,22.416523,39.030533)">
        <g
           id="path3193-3"
           style="fill:#0069f5;fill-opacity:1;stroke-width:0;stroke-miterlimit:4;stroke-dasharray:none">
          <path
             id="path84470"
             style="color:#000000;fill:#0069f5;fill-opacity:1;stroke:none;stroke-width:0;stroke-miterlimit:4;stroke-dasharray:none;paint-order:stroke fill markers"
             transform="matrix(0,-0.93983293,-0.93983293,0,36.68218,21.067786)"
             d="m 5.7226562,15.435547 c -0.2837387,0 -0.5537285,0.112321 -0.7519531,0.310547 l -1.5449219,1.546875 c 0.1752393,0.19891 0.1761212,0.214591 0.2128907,0.279297 0.047287,0.03889 0.09207,0.08125 0.1367187,0.123046 l 1.5703125,-1.572265 c 0.0997,-0.0997 0.2350843,-0.15625 0.3769531,-0.15625 h 8.0332028 c 0.289188,0 0.533227,0.244014 0.533203,0.533203 v 8.023438 c 3.7e-5,0.141869 -0.05655,0.273348 -0.15625,0.373046 l -1.740234,1.740235 c 0.01419,0.01051 0.02856,0.02103 0.04297,0.03125 0.119477,0.08476 0.243482,0.16268 0.365234,0.24414 0.01907,0.01188 0.02643,0.0171 0.04297,0.02734 l 1.666016,-1.666015 c 0.198224,-0.198261 0.310547,-0.466262 0.310546,-0.75 v -8.025391 c 2.9e-5,-0.583306 -0.481146,-1.0625 -1.064453,-1.0625 z m 0.3300782,1.595703 c -0.071054,1.1e-5 -0.1394832,0.02761 -0.1894532,0.07813 L 4.5625,18.412109 c 0.00812,0.0087 0.017314,0.01667 0.025391,0.02539 0.082936,0.101264 0.041902,0.05555 0.1210938,0.136719 0.077254,0.07109 0.1550433,0.143172 0.2304687,0.216797 L 6.1660156,17.5625 h 6.5273434 v 6.519531 l -1.513671,1.513672 c 0.04035,0.03587 0.08075,0.07158 0.121093,0.107422 0.145598,0.129627 0.177129,0.158714 0.273438,0.246094 l 1.572265,-1.570313 c 0.05001,-0.04945 0.07756,-0.115215 0.07813,-0.185547 v -6.896484 c -1.4e-5,-0.146904 -0.11872,-0.26561 -0.265625,-0.265625 H 6.0644531 Z" />
          <path
             id="path84467"
             style="color:#000000;fill:#0069f5;fill-opacity:1;stroke:none;stroke-width:0;stroke-miterlimit:4;stroke-dasharray:none;paint-order:stroke fill markers"
             transform="matrix(0,-0.93983293,-0.93983293,0,36.68218,21.067786)"
             d="m 5.7226562,15.435547 c -0.2837387,0 -0.5537285,0.112321 -0.7519531,0.310547 l -1.5449219,1.546875 c 0.1752393,0.19891 0.1761212,0.214591 0.2128907,0.279297 0.047287,0.03889 0.09207,0.08125 0.1367187,0.123046 l 1.5703125,-1.572265 c 0.0997,-0.0997 0.2350843,-0.15625 0.3769531,-0.15625 h 8.0332028 c 0.289188,0 0.533227,0.244014 0.533203,0.533203 v 8.023438 c 3.7e-5,0.141869 -0.05655,0.273348 -0.15625,0.373046 l -1.740234,1.740235 c 0.01419,0.01051 0.02856,0.02103 0.04297,0.03125 0.119477,0.08476 0.243482,0.16268 0.365234,0.24414 0.01907,0.01188 0.02643,0.0171 0.04297,0.02734 l 1.666016,-1.666015 c 0.198225,-0.198261 0.310547,-0.466262 0.310546,-0.75 v -8.025391 c 2.9e-5,-0.583307 -0.481146,-1.0625 -1.064453,-1.0625 z m 0.3300782,1.595703 c -0.071054,1.1e-5 -0.1394832,0.02761 -0.1894532,0.07813 L 4.5625,18.412109 c 0.00812,0.0087 0.017314,0.01667 0.025391,0.02539 0.082936,0.101264 0.041902,0.05555 0.1210938,0.136719 0.077254,0.07109 0.1550433,0.143172 0.2304687,0.216797 L 6.1660156,17.5625 h 6.5273434 v 6.519531 l -1.513671,1.513672 c 0.04035,0.03587 0.08075,0.07158 0.121093,0.107422 0.145598,0.129627 0.177129,0.158714 0.273438,0.246094 l 1.572265,-1.570313 c 0.05001,-0.04945 0.07756,-0.115215 0.07813,-0.185547 v -6.896484 c -1.4e-5,-0.146904 -0.11872,-0.26561 -0.265625,-0.265625 H 6.0644531 Z" />
        </g>
        <g
           id="path8833-3"
           style="fill:#0069f5;fill-opacity:1;stroke-width:0;stroke-miterlimit:4;stroke-dasharray:none">
          <path
             id="path84464"
             style="color:#000000;fill:#0069f5;fill-opacity:1;stroke:none;stroke-width:0;stroke-miterlimit:4;stroke-dasharray:none;paint-order:stroke fill markers"
             transform="matrix(0,-0.93983293,-0.93983293,0,36.68218,21.067786)"
             d="m 5.7226562,15.701172 c -0.2128037,0 -0.413534,0.08541 -0.5625,0.234375 L 3.5976562,17.5 c 0.016075,0.02487 0.025478,0.04432 0.041016,0.07227 0.065205,0.05362 0.1252963,0.112421 0.1875,0.169922 0.1359282,0.125651 0.00584,0.0043 0.2363281,0.220703 0.1547046,0.145876 0.1305473,0.128372 0.3027344,0.271484 0.032248,0.02681 0.068623,0.04988 0.099609,0.07813 0.043293,0.03948 0.083246,0.08201 0.1230468,0.125 0.082936,0.101264 0.041902,0.05555 0.1210938,0.136719 0.012172,0.0112 0.024955,0.02195 0.037109,0.0332 l 1.3066406,-1.310547 h 0.011719 6.8945311 v 6.894531 l -1.580078,1.580078 c 0.08092,0.07156 0.107814,0.09586 0.306641,0.277344 0.06273,0.05725 0.12276,0.118858 0.1875,0.173828 0.106008,0.09001 0.215285,0.175269 0.324219,0.261719 0.07854,0.06233 0.156511,0.125584 0.238281,0.183594 0.0593,0.04207 0.118987,0.08308 0.179687,0.123047 4.51e-4,2.96e-4 0.0015,-2.97e-4 0.002,0 l 1.703124,-1.705078 c 0.148996,-0.148996 0.234347,-0.35165 0.234376,-0.564454 V 16.5 c 0,-0.436248 -0.362581,-0.798828 -0.798829,-0.798828 z" />
          <path
             id="path84461"
             style="color:#000000;fill:#0069f5;fill-opacity:1;stroke:none;stroke-width:0;stroke-miterlimit:4;stroke-dasharray:none;paint-order:stroke fill markers"
             transform="matrix(0,-0.93983293,-0.93983293,0,36.68218,21.067786)"
             d="m 5.7226562,15.701172 c -0.2128037,0 -0.413534,0.08541 -0.5625,0.234375 L 3.5976562,17.5 c 0.016075,0.02487 0.025478,0.04432 0.041016,0.07227 0.065205,0.05362 0.1252963,0.112421 0.1875,0.169922 0.1359282,0.125651 0.00584,0.0043 0.2363281,0.220703 0.1547046,0.145876 0.1305473,0.128372 0.3027344,0.271484 0.032248,0.02681 0.068623,0.04988 0.099609,0.07813 0.043293,0.03948 0.083246,0.08201 0.1230468,0.125 0.082936,0.101264 0.041902,0.05555 0.1210938,0.136719 0.012172,0.0112 0.024955,0.02195 0.037109,0.0332 l 1.3066406,-1.310547 h 0.011719 6.8945311 v 6.894531 l -1.580078,1.580078 c 0.08092,0.07156 0.107814,0.09586 0.306641,0.277344 0.06273,0.05725 0.12276,0.118858 0.1875,0.173828 0.106008,0.09001 0.215285,0.175269 0.324219,0.261719 0.07854,0.06233 0.156511,0.125584 0.238281,0.183594 0.0593,0.04207 0.118987,0.08308 0.179687,0.123047 4.51e-4,2.96e-4 0.0015,-2.97e-4 0.002,0 l 1.703124,-1.705078 c 0.148996,-0.148996 0.234347,-0.35165 0.234376,-0.564454 V 16.5 c 0,-0.436248 -0.362581,-0.798828 -0.798829,-0.798828 z" />
        </g>
      </g>
    </g>
  </g>
  <g
     inkscape:groupmode="layer"
     id="g2473"
     inkscape:label="Layer 3"
     style="display:inline" />
</svg>
