<?xml version="1.0" encoding="UTF-8" standalone="no"?>
<!-- Created with Inkscape (http://www.inkscape.org/) -->

<svg
   width="180"
   height="180"
   viewBox="0 0 180 180"
   version="1.1"
   id="svg1"
   inkscape:version="1.3 (0e150ed, 2023-07-21)"
   sodipodi:docname="drawing.svg"
   xmlns:inkscape="http://www.inkscape.org/namespaces/inkscape"
   xmlns:sodipodi="http://sodipodi.sourceforge.net/DTD/sodipodi-0.dtd"
   xmlns="http://www.w3.org/2000/svg"
   xmlns:svg="http://www.w3.org/2000/svg">
  <sodipodi:namedview
     id="namedview1"
     pagecolor="#ffffff"
     bordercolor="#000000"
     borderopacity="0.25"
     inkscape:showpageshadow="2"
     inkscape:pageopacity="0.0"
     inkscape:pagecheckerboard="0"
     inkscape:deskcolor="#d1d1d1"
     inkscape:document-units="px"
     inkscape:zoom="4.54"
     inkscape:cx="134.2511"
     inkscape:cy="97.026432"
     inkscape:window-width="2080"
     inkscape:window-height="996"
     inkscape:window-x="310"
     inkscape:window-y="323"
     inkscape:window-maximized="0"
     inkscape:current-layer="layer1" />
  <defs
     id="defs1" />
  <g
     inkscape:label="Layer 1"
     inkscape:groupmode="layer"
     id="layer1">
    <rect
       style="fill:#27b46a;fill-opacity:1;stroke-width:0.283266;stroke-linecap:round;stroke-linejoin:round"
       id="rect1"
       width="180"
       height="180"
       x="0"
       y="0" />
    <circle
       style="fill:#ffffff;fill-opacity:1;stroke-width:0.25;stroke-linecap:round;stroke-linejoin:round"
       id="path1"
       cx="90"
       cy="90"
       r="90" />
    <path
       id="shopping--cart_1_"
       d="m 112.44073,135.00681 c -3.77081,0 -6.83495,-3.06704 -6.83495,-6.83495 0,-3.76792 3.06704,-6.83496 6.83495,-6.83496 3.76793,0 6.83497,3.06704 6.83497,6.83496 0,3.76791 -3.06415,6.83495 -6.83497,6.83495 z m 0,-11.58466 c -2.61813,0 -4.74971,2.12868 -4.74971,4.74971 0,2.62103 2.12869,4.74972 4.74971,4.74972 2.62104,0 4.74972,-2.12869 4.74972,-4.74972 0,-2.62103 -2.13158,-4.74971 -4.74972,-4.74971 z m -39.098261,11.58466 c -3.76791,0 -6.834951,-3.06704 -6.834951,-6.83495 0,-3.76792 3.067041,-6.83496 6.834951,-6.83496 3.767921,0 6.834961,3.06704 6.834961,6.83496 0,3.76791 -3.06704,6.83495 -6.834961,6.83495 z m 0,-11.58466 c -2.618134,0 -4.749715,2.12868 -4.749715,4.74971 0,2.62103 2.131581,4.74972 4.749715,4.74972 2.618144,0 4.749714,-2.12869 4.749714,-4.74972 0,-2.62103 -2.13157,-4.74971 -4.749714,-4.74971 z m 47.786771,-5.79234 H 72.818268 c -5.934246,0 -9.070797,-3.21185 -10.828776,-11.08364 L 47.905428,48.121782 h -7.868883 v -2.085237 h 8.688499 c 0.48077,0 0.900716,0.327268 1.013668,0.796449 l 4.943755,20.336886 0.03763,-0.008 5.798127,24.0266 c 1.708743,6.73359 4.486163,9.87304 8.740637,9.87304 h 44.887689 c 3.94169,0 6.24125,-2.28507 7.02321,-6.98556 l 4.54699,-31.47265 H 63.205866 v -2.08523 h 63.715694 c 0.3012,0 0.59082,0.13033 0.78775,0.35912 0.19694,0.2288 0.28673,0.5329 0.24328,0.83121 l -4.72654,32.69193 c -1.20481,7.23463 -5.60699,8.74933 -9.08528,8.74933 H 69.255956 c -2.629712,0 -4.825009,-0.92678 -6.603263,-2.81219 l 1.372789,5.73731 c 1.561035,6.99425 3.860588,9.46758 8.795657,9.46758 h 48.308081 z"
       style="fill:#27b46a;fill-opacity:1;stroke:#27b46a;stroke-width:3;stroke-dasharray:none;stroke-opacity:1" />
    <circle
       style="fill:#0e895b;fill-opacity:1;stroke:none;stroke-width:1;stroke-linecap:round;stroke-linejoin:round;stroke-dasharray:none;stroke-opacity:1"
       id="path2"
       cx="160"
       cy="160"
       r="20" />
    <polygon
       points="4,15 5.414,13.586 13,21.171 26.586,7.586 28,9 13,24 "
       id="polygon1"
       transform="matrix(0.77829926,0,0,0.77829926,148.25842,147.82353)"
       style="fill:#ffffff;stroke:#ffffff;stroke-width:1.2;stroke-dasharray:none;stroke-opacity:1" />
    <path
       id="rect2"
       style="fill:#27b46a;fill-opacity:0.25;stroke-width:0.5;stroke-linecap:round;stroke-linejoin:round"
       d="m 65.149893,71.950206 50.083807,-0.15575 -2.80351,19.476129 H 70.055406 Z"
       sodipodi:nodetypes="ccccc" />
  </g>
</svg>
