<?xml version="1.0" encoding="UTF-8" standalone="no"?>
<!-- Created with Inkscape (http://www.inkscape.org/) -->

<svg
   width="32"
   height="32"
   viewBox="0 0 32 32"
   version="1.1"
   id="svg1"
   inkscape:version="1.3 (0e150ed6c4, 2023-07-21)"
   sodipodi:docname="certification.svg"
   xmlns:inkscape="http://www.inkscape.org/namespaces/inkscape"
   xmlns:sodipodi="http://sodipodi.sourceforge.net/DTD/sodipodi-0.dtd"
   xmlns:xlink="http://www.w3.org/1999/xlink"
   xmlns="http://www.w3.org/2000/svg"
   xmlns:svg="http://www.w3.org/2000/svg">
  <sodipodi:namedview
     id="namedview1"
     pagecolor="#ffffff"
     bordercolor="#000000"
     borderopacity="0.25"
     inkscape:showpageshadow="2"
     inkscape:pageopacity="0.0"
     inkscape:pagecheckerboard="0"
     inkscape:deskcolor="#d1d1d1"
     inkscape:document-units="px"
     inkscape:zoom="18.672038"
     inkscape:cx="14.942129"
     inkscape:cy="20.056729"
     inkscape:window-width="2560"
     inkscape:window-height="1043"
     inkscape:window-x="1920"
     inkscape:window-y="1080"
     inkscape:window-maximized="1"
     inkscape:current-layer="layer4"
     showgrid="false" />
  <defs
     id="defs1">
    <linearGradient
       id="linearGradient3"
       inkscape:collect="always">
      <stop
         style="stop-color:#ffffff;stop-opacity:0.25;"
         offset="0"
         id="stop3" />
      <stop
         style="stop-color:#ffffff;stop-opacity:0;"
         offset="1"
         id="stop4" />
    </linearGradient>
    <linearGradient
       inkscape:collect="always"
       xlink:href="#linearGradient3"
       id="linearGradient4"
       x1="0.10885104"
       y1="15.958832"
       x2="32.108851"
       y2="15.958832"
       gradientUnits="userSpaceOnUse"
       gradientTransform="matrix(0.99960952,0,0,0.99733783,0.00134915,0.00302614)" />
  </defs>
  <g
     inkscape:groupmode="layer"
     id="layer2"
     inkscape:label="Layer 2"
     style="display:inline;fill:#656565;fill-opacity:1">
    <path
       id="rect3"
       style="fill:url(#linearGradient4);stroke-width:0;stroke-linecap:round;stroke-linejoin:round"
       d="M 15.956055,1.1367188 3.4550781,7.1791835 V 20.060814 c 0,6.003886 5.7254097,11.075905 12.5009769,11.075905 6.775565,0 12.499023,-5.072019 12.499023,-11.075905 V 7.1791835 Z" />
  </g>
  <g
     inkscape:label="Layer 1"
     inkscape:groupmode="layer"
     id="layer1"
     style="display:inline" />
  <g
     inkscape:label="shield2"
     inkscape:groupmode="layer"
     id="g4"
     style="display:inline">
    <path
       id="path4"
       style="fill:none;stroke:#ffffff;stroke-width:1.635;stroke-dasharray:none;stroke-opacity:1"
       d="m 15.080863,29.177038 c -6.3328126,0 -11.6824976,-4.751197 -11.6824976,-10.375537 V 6.7326343 L 15.080863,1.0735833 26.763361,6.7326343 V 18.801501 c 0,5.62434 -5.349687,10.375537 -11.682498,10.375537 z" />
  </g>
  <g
     inkscape:groupmode="layer"
     id="layer4"
     inkscape:label="Layer 3"
     style="display:inline">
    <polygon
       points="24,25.75 20.229,28 21,24 18,21.297 22.2,20.703 24,17 25.912,20.703 30,21.297 27,24 27.771,28 "
       id="polygon1"
       transform="matrix(0.39285714,0,0,0.45833333,8.714286,8.166667)"
       style="fill:#ffffff" />
    <rect
       x="11.071426"
       y="15.5"
       width="2.3571429"
       height="0.91666669"
       id="rect1"
       style="fill:#ffffff;stroke-width:0.424334" />
    <rect
       x="11.071426"
       y="13.666666"
       width="3.9285715"
       height="0.91666669"
       id="rect2"
       style="fill:#ffffff;stroke-width:0.424334" />
    <rect
       x="11.071426"
       y="11.833334"
       width="3.9285715"
       height="0.91666669"
       id="rect3-6"
       style="fill:#ffffff;stroke-width:0.424334" />
    <path
       d="m 15,20.083333 h -4.714286 v -9.166666 h 9.428572 V 15.5 H 20.5 V 10.916667 A 0.78571429,0.91666667 0 0 0 19.714286,10 H 10.285714 A 0.78571429,0.91666667 0 0 0 9.5,10.916667 v 9.166666 A 0.78571429,0.91666667 0 0 0 10.285714,21 H 15 Z"
       id="path3"
       style="fill:#ffffff;stroke-width:0.424334" />
  </g>
</svg>
