<?xml version="1.0" encoding="UTF-8" standalone="no"?>
<!-- Created with Inkscape (http://www.inkscape.org/) -->

<svg
   width="32"
   height="32"
   viewBox="0 0 32 32"
   version="1.1"
   id="svg1"
   inkscape:version="1.3 (0e150ed6c4, 2023-07-21)"
   sodipodi:docname="governance.svg"
   xmlns:inkscape="http://www.inkscape.org/namespaces/inkscape"
   xmlns:sodipodi="http://sodipodi.sourceforge.net/DTD/sodipodi-0.dtd"
   xmlns:xlink="http://www.w3.org/1999/xlink"
   xmlns="http://www.w3.org/2000/svg"
   xmlns:svg="http://www.w3.org/2000/svg">
  <sodipodi:namedview
     id="namedview1"
     pagecolor="#ffffff"
     bordercolor="#000000"
     borderopacity="0.25"
     inkscape:showpageshadow="2"
     inkscape:pageopacity="0.0"
     inkscape:pagecheckerboard="0"
     inkscape:deskcolor="#d1d1d1"
     inkscape:document-units="px"
     inkscape:zoom="13.203125"
     inkscape:cx="17.495858"
     inkscape:cy="19.2"
     inkscape:window-width="1392"
     inkscape:window-height="773"
     inkscape:window-x="2227"
     inkscape:window-y="1228"
     inkscape:window-maximized="0"
     inkscape:current-layer="layer4"
     showgrid="false" />
  <defs
     id="defs1">
    <linearGradient
       id="linearGradient3"
       inkscape:collect="always">
      <stop
         style="stop-color:#ffffff;stop-opacity:0.25;"
         offset="0"
         id="stop3" />
      <stop
         style="stop-color:#ffffff;stop-opacity:0;"
         offset="1"
         id="stop4" />
    </linearGradient>
    <linearGradient
       inkscape:collect="always"
       xlink:href="#linearGradient3"
       id="linearGradient4"
       x1="0.10885104"
       y1="15.958832"
       x2="32.108851"
       y2="15.958832"
       gradientUnits="userSpaceOnUse"
       gradientTransform="matrix(0.99960952,0,0,0.99733783,0.00134915,0.00302614)" />
  </defs>
  <g
     inkscape:groupmode="layer"
     id="layer2"
     inkscape:label="Layer 2"
     style="display:inline;fill:#656565;fill-opacity:1">
    <path
       id="rect3"
       style="fill:url(#linearGradient4);stroke-width:0;stroke-linecap:round;stroke-linejoin:round"
       d="M 15.956055,1.1367188 3.4550781,7.1791835 V 20.060814 c 0,6.003886 5.7254097,11.075905 12.5009769,11.075905 6.775565,0 12.499023,-5.072019 12.499023,-11.075905 V 7.1791835 Z" />
  </g>
  <g
     inkscape:label="Layer 1"
     inkscape:groupmode="layer"
     id="layer1"
     style="display:inline" />
  <g
     inkscape:label="shield2"
     inkscape:groupmode="layer"
     id="g4"
     style="display:inline">
    <path
       id="path4"
       style="fill:none;stroke:#ffffff;stroke-width:1.635;stroke-dasharray:none;stroke-opacity:1"
       d="m 15.080863,29.177038 c -6.3328126,0 -11.6824976,-4.751197 -11.6824976,-10.375537 V 6.7326343 L 15.080863,1.0735833 26.763361,6.7326343 V 18.801501 c 0,5.62434 -5.349687,10.375537 -11.682498,10.375537 z" />
  </g>
  <g
     inkscape:groupmode="layer"
     id="layer4"
     inkscape:label="Layer 3"
     style="display:inline">
    <rect
       x="9.5"
       y="20.214275"
       width="11"
       height="0.78572619"
       id="rect1"
       style="fill:#ffffff;stroke-width:0.39286" />
    <path
       d="m 19.321429,13.5356 a 0.39285714,0.3928631 0 0 0 0.392857,-0.392863 V 11.964148 A 0.39285714,0.3928631 0 0 0 19.455,11.594857 l -4.321429,-1.571453 a 0.39285714,0.3928631 0 0 0 -0.267142,0 L 10.545,11.594857 a 0.39285714,0.3928631 0 0 0 -0.259286,0.369291 v 1.178589 a 0.39285714,0.3928631 0 0 0 0.392857,0.392863 h 0.392858 v 5.107221 h -0.785715 v 0.785726 h 9.428572 V 18.642821 H 18.928571 V 13.5356 Z m -8.25,-1.296448 L 15,10.809131 l 3.928571,1.430021 v 0.510722 h -7.857142 z m 4.714285,6.403669 H 14.214286 V 13.5356 h 1.571428 z M 11.857143,13.5356 h 1.571428 v 5.107221 h -1.571428 z m 6.285714,5.107221 H 16.571429 V 13.5356 h 1.571428 z"
       id="path1"
       style="fill:#ffffff;stroke-width:0.39286" />
  </g>
</svg>
