<?xml version="1.0" encoding="UTF-8" standalone="no"?>
<!-- Created with Inkscape (http://www.inkscape.org/) -->

<svg
   width="32"
   height="32"
   viewBox="0 0 32 32"
   version="1.1"
   id="svg1"
   inkscape:version="1.3 (0e150ed6c4, 2023-07-21)"
   sodipodi:docname="schemes.svg"
   xmlns:inkscape="http://www.inkscape.org/namespaces/inkscape"
   xmlns:sodipodi="http://sodipodi.sourceforge.net/DTD/sodipodi-0.dtd"
   xmlns:xlink="http://www.w3.org/1999/xlink"
   xmlns="http://www.w3.org/2000/svg"
   xmlns:svg="http://www.w3.org/2000/svg">
  <sodipodi:namedview
     id="namedview1"
     pagecolor="#ffffff"
     bordercolor="#000000"
     borderopacity="0.25"
     inkscape:showpageshadow="2"
     inkscape:pageopacity="0.0"
     inkscape:pagecheckerboard="0"
     inkscape:deskcolor="#d1d1d1"
     inkscape:document-units="px"
     inkscape:zoom="18.672038"
     inkscape:cx="14.942129"
     inkscape:cy="19.306944"
     inkscape:window-width="2560"
     inkscape:window-height="1043"
     inkscape:window-x="1920"
     inkscape:window-y="1080"
     inkscape:window-maximized="1"
     inkscape:current-layer="layer4" />
  <defs
     id="defs1">
    <linearGradient
       id="linearGradient3"
       inkscape:collect="always">
      <stop
         style="stop-color:#ffffff;stop-opacity:0.25;"
         offset="0"
         id="stop3" />
      <stop
         style="stop-color:#ffffff;stop-opacity:0;"
         offset="1"
         id="stop4" />
    </linearGradient>
    <linearGradient
       inkscape:collect="always"
       xlink:href="#linearGradient3"
       id="linearGradient4"
       x1="0.10885104"
       y1="15.958832"
       x2="32.108851"
       y2="15.958832"
       gradientUnits="userSpaceOnUse"
       gradientTransform="matrix(0.99960952,0,0,0.99733783,0.00134915,0.00302614)" />
  </defs>
  <g
     inkscape:groupmode="layer"
     id="layer2"
     inkscape:label="Layer 2"
     style="display:inline;fill:#656565;fill-opacity:1">
    <path
       id="rect3"
       style="fill:url(#linearGradient4);stroke-width:0;stroke-linecap:round;stroke-linejoin:round"
       d="M 15.956055,1.1367188 3.4550781,7.1791835 V 20.060814 c 0,6.003886 5.7254097,11.075905 12.5009769,11.075905 6.775565,0 12.499023,-5.072019 12.499023,-11.075905 V 7.1791835 Z" />
  </g>
  <g
     inkscape:label="Layer 1"
     inkscape:groupmode="layer"
     id="layer1"
     style="display:inline" />
  <g
     inkscape:label="shield2"
     inkscape:groupmode="layer"
     id="g4"
     style="display:inline">
    <path
       id="path4"
       style="fill:none;stroke:#ffffff;stroke-width:1.635;stroke-dasharray:none;stroke-opacity:1"
       d="m 15.080863,29.177038 c -6.3328126,0 -11.6824976,-4.751197 -11.6824976,-10.375537 V 6.7326343 L 15.080863,1.0735833 26.763361,6.7326343 V 18.801501 c 0,5.62434 -5.349687,10.375537 -11.682498,10.375537 z" />
  </g>
  <g
     inkscape:groupmode="layer"
     id="layer4"
     inkscape:label="Layer 3"
     style="display:inline">
    <path
       d="M 12.199997,18.8 H 10.733332 A 0.73410247,0.73410332 0 0 1 10,18.066666 V 16.6 h 0.733332 v 1.466666 h 1.466665 z"
       id="path1"
       style="stroke-width:0.366666;fill:#ffffff" />
    <rect
       x="10"
       y="13.666666"
       width="0.73333246"
       height="1.4666666"
       id="rect1"
       style="stroke-width:0.366666;fill:#ffffff" />
    <path
       d="M 18.79999,12.2 H 18.066657 V 10.733333 H 16.599992 V 10 h 1.466665 a 0.73410247,0.73410332 0 0 1 0.733333,0.733333 z"
       id="path2"
       style="stroke-width:0.366666;fill:#ffffff" />
    <rect
       x="13.666662"
       y="10"
       width="1.4666649"
       height="0.73333329"
       id="rect2"
       style="stroke-width:0.366666;fill:#ffffff" />
    <path
       d="M 10.733332,12.2 H 10 V 10.733333 A 0.73410247,0.73410332 0 0 1 10.733332,10 h 1.466665 v 0.733333 h -1.466665 z"
       id="path3"
       style="stroke-width:0.366666;fill:#ffffff" />
    <path
       d="m 19.166656,21 a 0.36545624,0.36545666 0 0 1 -0.259233,-0.107434 l -2.250487,-2.250489 -1.218542,1.827979 a 0.36666624,0.36666666 0 0 1 -0.656333,-0.09812 L 12.582064,13.038603 A 0.36666624,0.36666666 0 0 1 13.0386,12.582067 l 7.333325,2.2 a 0.36666624,0.36666666 0 0 1 0.09812,0.656333 l -1.827977,1.218543 2.250487,2.25049 a 0.36644624,0.36644666 0 0 1 0,0.518467 L 19.42589,20.892566 A 0.36545624,0.36545666 0 0 1 19.166656,21 Z m 0,-0.88517 0.948162,-0.948164 -2.62346,-2.6235 1.923458,-1.282526 -5.93453,-1.78035 1.780348,5.934536 1.282525,-1.92346 z"
       id="path4-9"
       style="stroke-width:0.366666;fill:#ffffff" />
  </g>
</svg>
