<?xml version="1.0" encoding="UTF-8" standalone="no"?>
<!-- Created with Inkscape (http://www.inkscape.org/) -->

<svg
   width="32"
   height="32"
   viewBox="0 0 32 32"
   version="1.1"
   id="svg1"
   inkscape:version="1.3 (0e150ed6c4, 2023-07-21)"
   sodipodi:docname="store.svg"
   xmlns:inkscape="http://www.inkscape.org/namespaces/inkscape"
   xmlns:sodipodi="http://sodipodi.sourceforge.net/DTD/sodipodi-0.dtd"
   xmlns:xlink="http://www.w3.org/1999/xlink"
   xmlns="http://www.w3.org/2000/svg"
   xmlns:svg="http://www.w3.org/2000/svg">
  <sodipodi:namedview
     id="namedview1"
     pagecolor="#ffffff"
     bordercolor="#000000"
     borderopacity="0.25"
     inkscape:showpageshadow="2"
     inkscape:pageopacity="0.0"
     inkscape:pagecheckerboard="0"
     inkscape:deskcolor="#d1d1d1"
     inkscape:document-units="px"
     inkscape:zoom="13.203125"
     inkscape:cx="35.976331"
     inkscape:cy="16.852071"
     inkscape:window-width="2560"
     inkscape:window-height="1043"
     inkscape:window-x="1920"
     inkscape:window-y="1080"
     inkscape:window-maximized="1"
     inkscape:current-layer="g4" />
  <defs
     id="defs1">
    <linearGradient
       id="linearGradient3"
       inkscape:collect="always">
      <stop
         style="stop-color:#ffffff;stop-opacity:0.25;"
         offset="0"
         id="stop3" />
      <stop
         style="stop-color:#ffffff;stop-opacity:0;"
         offset="1"
         id="stop4" />
    </linearGradient>
    <linearGradient
       inkscape:collect="always"
       xlink:href="#linearGradient3"
       id="linearGradient4"
       x1="0.10885104"
       y1="15.958832"
       x2="32.108851"
       y2="15.958832"
       gradientUnits="userSpaceOnUse"
       gradientTransform="matrix(0.99960952,0,0,0.99733783,0.00134915,0.00302614)" />
  </defs>
  <g
     inkscape:groupmode="layer"
     id="layer2"
     inkscape:label="Layer 2"
     style="display:inline;fill:#656565;fill-opacity:1">
    <path
       id="rect3"
       style="fill:url(#linearGradient4);stroke-width:0;stroke-linecap:round;stroke-linejoin:round"
       d="M 15.956055,1.1367188 3.4550781,7.1791835 V 20.060814 c 0,6.003886 5.7254097,11.075905 12.5009769,11.075905 6.775565,0 12.499023,-5.072019 12.499023,-11.075905 V 7.1791835 Z" />
  </g>
  <g
     inkscape:label="Layer 1"
     inkscape:groupmode="layer"
     id="layer1"
     style="display:inline" />
  <g
     inkscape:label="shield2"
     inkscape:groupmode="layer"
     id="g4"
     style="display:inline">
    <path
       id="path4"
       style="fill:none;stroke:#ffffff;stroke-width:1.635;stroke-dasharray:none;stroke-opacity:1"
       d="m 15.080863,29.177038 c -6.3328126,0 -11.6824976,-4.751197 -11.6824976,-10.375537 V 6.7326343 L 15.080863,1.0735833 26.763361,6.7326343 V 18.801501 c 0,5.62434 -5.349687,10.375537 -11.682498,10.375537 z" />
    <rect
       x="-4.7982435"
       y="21.172552"
       width="4.4430637"
       height="0.78568757"
       transform="matrix(0.70708442,-0.70712914,0.70708442,0.70712914,0,0)"
       id="rect1"
       style="fill:#ffffff;stroke-width:0.392844" />
  </g>
  <g
     inkscape:groupmode="layer"
     id="layer4"
     inkscape:label="Layer 3"
     style="display:inline">
    <path
       d="m 15.393166,20.999999 a 0.39283138,0.39285623 0 0 1 -0.145348,-0.0275 0.39283138,0.39285623 0 0 1 -0.243555,-0.310356 l -0.392832,-2.749994 0.785663,-0.11 0.294624,2.070352 1.272773,-1.025354 v -2.954279 a 0.39283138,0.39285623 0 0 1 0.113921,-0.278928 l 1.598824,-1.598925 a 3.5119126,3.5121347 0 0 0 1.037075,-2.498566 v -0.730712 h -0.730666 a 3.5119126,3.5121347 0 0 0 -2.498408,1.03714 l -1.598824,1.598925 a 0.39283138,0.39285623 0 0 1 -0.27891,0.113928 h -2.954092 l -1.02529,1.280712 2.070221,0.294642 -0.109993,0.785712 L 9.83853,15.50394 a 0.39283138,0.39285623 0 0 1 -0.3103369,-0.243571 0.39283138,0.39285623 0 0 1 0.05893,-0.392856 l 1.5713249,-1.964281 a 0.39283138,0.39285623 0 0 1 0.306409,-0.153214 h 2.98159 l 1.480974,-1.484997 a 4.2897187,4.2899901 0 0 1 3.056229,-1.264997 h 0.730666 a 0.78566277,0.78571246 0 0 1 0.785663,0.785713 v 0.730712 a 4.2897187,4.2899901 0 0 1 -1.264917,3.056422 l -1.484903,1.481068 v 2.981779 a 0.39283138,0.39285623 0 0 1 -0.149281,0.306428 L 15.636721,20.91357 A 0.39283138,0.39285623 0 0 1 15.393166,21 Z"
       id="path1"
       style="display:inline;fill:#ffffff;stroke-width:0.392844" />
  </g>
</svg>
