<?xml version="1.0" encoding="UTF-8" standalone="no"?>
<!-- Created with Inkscape (http://www.inkscape.org/) -->

<svg
   width="32"
   height="32"
   viewBox="0 0 32 32"
   version="1.1"
   id="svg1"
   inkscape:version="1.3 (0e150ed6c4, 2023-07-21)"
   sodipodi:docname="governance.svg"
   xmlns:inkscape="http://www.inkscape.org/namespaces/inkscape"
   xmlns:sodipodi="http://sodipodi.sourceforge.net/DTD/sodipodi-0.dtd"
   xmlns:xlink="http://www.w3.org/1999/xlink"
   xmlns="http://www.w3.org/2000/svg"
   xmlns:svg="http://www.w3.org/2000/svg">
  <sodipodi:namedview
     id="namedview1"
     pagecolor="#ffffff"
     bordercolor="#000000"
     borderopacity="0.25"
     inkscape:showpageshadow="2"
     inkscape:pageopacity="0.0"
     inkscape:pagecheckerboard="0"
     inkscape:deskcolor="#d1d1d1"
     inkscape:document-units="px"
     inkscape:zoom="18.672038"
     inkscape:cx="14.942129"
     inkscape:cy="16.629144"
     inkscape:window-width="2560"
     inkscape:window-height="1043"
     inkscape:window-x="1920"
     inkscape:window-y="0"
     inkscape:window-maximized="1"
     inkscape:current-layer="layer4"
     showgrid="false" />
  <defs
     id="defs1">
    <linearGradient
       id="linearGradient3"
       inkscape:collect="always">
      <stop
         style="stop-color:#ffffff;stop-opacity:0.25;"
         offset="0"
         id="stop3" />
      <stop
         style="stop-color:#ffffff;stop-opacity:0;"
         offset="1"
         id="stop4" />
    </linearGradient>
    <linearGradient
       inkscape:collect="always"
       xlink:href="#linearGradient3"
       id="linearGradient4"
       x1="0.10885104"
       y1="15.958832"
       x2="32.108851"
       y2="15.958832"
       gradientUnits="userSpaceOnUse"
       gradientTransform="matrix(0.99960952,0,0,0.99733783,0.00134915,0.00302614)" />
  </defs>
  <g
     inkscape:groupmode="layer"
     id="layer2"
     inkscape:label="Layer 2"
     style="display:inline;fill:#656565;fill-opacity:1">
    <path
       id="rect3"
       style="fill:url(#linearGradient4);stroke-width:0;stroke-linecap:round;stroke-linejoin:round"
       d="M 15.956055,1.1367188 3.4550781,7.1791835 V 20.060814 c 0,6.003886 5.7254097,11.075905 12.5009769,11.075905 6.775565,0 12.499023,-5.072019 12.499023,-11.075905 V 7.1791835 Z" />
  </g>
  <g
     inkscape:label="Layer 1"
     inkscape:groupmode="layer"
     id="layer1"
     style="display:inline" />
  <g
     inkscape:label="shield2"
     inkscape:groupmode="layer"
     id="g4"
     style="display:inline">
    <path
       id="path4"
       style="fill:none;stroke:#ffffff;stroke-width:1.635;stroke-dasharray:none;stroke-opacity:1"
       d="m 15.080863,29.177038 c -6.3328126,0 -11.6824976,-4.751197 -11.6824976,-10.375537 V 6.7326343 L 15.080863,1.0735833 26.763361,6.7326343 V 18.801501 c 0,5.62434 -5.349687,10.375537 -11.682498,10.375537 z" />
  </g>
  <g
     inkscape:groupmode="layer"
     id="layer4"
     inkscape:label="Layer 3"
     style="display:inline">
    <g
       id="g1"
       transform="matrix(0.39285714,0,0,0.40740741,9.2142857,8.7777778)"
       style="fill:#ffffff">
      <path
         d="M 26,12 H 20 V 6 A 3.0033,3.0033 0 0 0 17,3 h -2.1328 a 2.0094,2.0094 0 0 0 -1.98,1.7173 L 12.0419,10.6338 8.4648,16 H 2 v 14 h 21 a 7.0078,7.0078 0 0 0 7,-7 V 16 A 4.0045,4.0045 0 0 0 26,12 Z M 8,28 H 4 V 18 h 4 z m 20,-5 a 5.0057,5.0057 0 0 1 -5,5 H 10 V 17.3027 L 13.9578,11.3662 14.8672,5 H 17 a 1.0008,1.0008 0 0 1 1,1 v 8 h 8 a 2.0025,2.0025 0 0 1 2,2 z"
         id="path1"
         style="fill:#ffffff" />
    </g>
  </g>
</svg>
